<?xml version="1.0" encoding="UTF-8" standalone="no"?>
<svg width="187px" height="62px" viewBox="0 0 187 62" version="1.1" xmlns="http://www.w3.org/2000/svg" xmlns:xlink="http://www.w3.org/1999/xlink">
    <!-- Generator: Sketch 39.1 (31720) - http://www.bohemiancoding.com/sketch -->
    <title>Group</title>
    <desc>Created with Sketch.</desc>
    <defs></defs>
    <g id="Page-1" stroke="none" stroke-width="1" fill="none" fill-rule="evenodd">
        <g id="Group" fill="#000000">
            <g id="logo-backpackers">
                <path d="M8.68592308,40.2192368 L14.2226538,40.2192368 L14.2226538,58.4007368 C14.2226538,59.9450263 12.9828462,61.1972632 11.4538846,61.1972632 C9.92573077,61.1972632 8.68592308,59.9450263 8.68592308,58.4007368 L8.68592308,40.2192368 L8.68592308,40.2192368 Z M15.6070385,58.4007368 C15.6070385,59.9450263 16.8468462,61.1972632 18.3766154,61.1972632 C19.9047692,61.1972632 21.1453846,59.9450263 21.1453846,58.4007368 L21.1453846,40.2192368 L15.6070385,40.2192368 L15.6070385,58.4007368 L15.6070385,58.4007368 Z M6.80884615,32.6666579 C6.27253846,32.3354474 5.9115,31.744 5.9115,31.0628158 C5.9115,30.0691842 6.67557692,29.2631842 7.64157692,29.1922105 C8.39676923,26.0383684 9.24,22.5133421 9.9015,19.7445526 L6.42519231,19.7445526 C5.397,19.7445526 4.56265385,20.5880789 4.56265385,21.6282105 L4.56265385,23.3813421 L0.694615385,27.3599474 C0.228576923,27.8396316 0.0387692308,28.5273421 0.190615385,29.1807895 C0.343269231,29.8350526 0.817384615,30.3653158 1.44657692,30.5831316 L4.56184615,31.6656842 L4.56184615,33.9939474 C4.56184615,34.9035526 5.19911538,35.6622368 6.04557692,35.8400789 C6.237,35.0503947 6.50030769,33.9539737 6.80884615,32.6666579 L6.80884615,32.6666579 Z M14.9140385,18.0003947 C18.3548077,18.0003947 21.1453846,15.1826579 21.1453846,11.7073947 C21.1453846,8.23213158 18.3548077,5.41439474 14.9140385,5.41439474 C11.4732692,5.41439474 8.68269231,8.23213158 8.68269231,11.7073947 C8.6835,15.1834737 11.4732692,18.0003947 14.9140385,18.0003947 L14.9140385,18.0003947 Z M21.7487308,32.9171053 C20.8618846,32.7718947 20.1834231,31.9993421 20.1834231,31.0636316 C20.1834231,30.4436316 20.4838846,29.8970526 20.9418462,29.5536053 C20.3360769,27.0271053 19.5396923,23.6937895 18.4937308,19.3138158 C17.4259615,18.8871579 16.212,18.6611842 14.9148462,18.6611842 L14.9148462,18.662 L14.9140385,18.6611842 C13.6168846,18.6611842 12.4021154,18.8871579 11.3335385,19.3146316 C10.2875769,23.6937895 9.49038462,27.0271053 8.88542308,29.5536053 C9.34338462,29.8970526 9.64384615,30.4428158 9.64384615,31.0636316 C9.64384615,31.9993421 8.96538462,32.7727105 8.07853846,32.9171053 C7.71103846,34.4467105 7.46630769,35.4631842 7.29911538,36.1533421 L7.29911538,38.8217895 L22.5289615,38.8217895 L22.5289615,36.1590526 C22.3625769,35.4697105 22.1170385,34.4507895 21.7487308,32.9171053 L21.7487308,32.9171053 Z M29.1366923,27.3599474 L25.7605385,23.8879474 L25.7605385,21.6282105 C25.7605385,20.5880789 24.927,19.7445526 23.8988077,19.7445526 L19.9273846,19.7445526 C20.5888846,22.5133421 21.4321154,26.0375526 22.1865,29.1913947 C23.1533077,29.2631842 23.9173846,30.0683684 23.9173846,31.0628158 C23.9173846,31.744 23.5563462,32.3354474 23.0200385,32.6666579 C23.3334231,33.976 23.6007692,35.0871053 23.7913846,35.8792368 L23.8996154,35.8792368 C24.9278077,35.8792368 25.7613462,35.0389737 25.7613462,33.9955789 L25.7613462,31.496 L28.3847308,30.5847632 C29.0131154,30.3653158 29.4880385,29.8366842 29.6406923,29.1824211 C29.7925385,28.5273421 29.6027308,27.8388158 29.1366923,27.3599474 L29.1366923,27.3599474 Z" id="Shape"></path>
                <path d="M53.3537308,31.0628158 C53.3537308,32.0107632 54.0475385,32.7857632 54.9473077,32.9195526 L58.2725769,46.7227105 L37.8904615,46.7227105 L41.2189615,32.9195526 C42.1195385,32.7841316 42.8125385,32.0107632 42.8125385,31.0628158 C42.8125385,30.4338421 42.5048077,29.8807368 42.0363462,29.5381053 L44.5006154,19.3154474 C45.5691923,18.8871579 46.7855769,18.6611842 48.0819231,18.6611842 C49.3831154,18.6611842 50.5978846,18.8879737 51.6656538,19.3154474 L54.1323462,29.5372895 C53.6614615,29.8791053 53.3537308,30.4338421 53.3537308,31.0628158 L53.3537308,31.0628158 Z M41.0235,10.5832368 C41.4144231,10.5065526 41.7568846,10.3254474 42.0694615,10.0831579 C41.9321538,10.602 41.8513846,11.1445 41.8513846,11.7073947 C41.8513846,15.1834737 44.6419615,18.0003947 48.0827308,18.0003947 C51.5251154,18.0003947 54.3156923,15.1826579 54.3156923,11.7073947 C54.3156923,8.23213158 51.5251154,5.41439474 48.0827308,5.41439474 C46.7500385,5.41439474 45.5142692,5.84186842 44.4998077,6.56384211 C45.1580769,5.45355263 45.8801538,4.51131579 46.9487308,4.37344737 C48.0803077,4.22660526 49.1803846,4.35957895 49.1803846,4.35957895 C49.6084615,3.16852632 48.3508846,-0.0603684211 44.4521538,1.02136842 C40.887,2.01092105 41.202,4.52926316 41.6252308,6.23997368 C42.0137308,7.80628947 41.4281538,8.78605263 40.1301923,9.07810526 C38.8330385,9.36934211 37.9138846,7.92213158 37.863,7.18057895 C36.9850385,8.15952632 38.2692692,11.1265526 41.0235,10.5832368 L41.0235,10.5832368 Z M37.7313462,33.9955789 C37.7313462,34.8962105 38.3540769,35.6442895 39.1892308,35.8311053 L39.9557308,32.6536053 C39.4323462,32.3207632 39.0818077,31.7342105 39.0818077,31.062 C39.0818077,30.0757105 39.8345769,29.2754211 40.7900769,29.1930263 L43.0661538,19.7437368 L39.5930769,19.7437368 C38.5665,19.7437368 37.7313462,20.5872632 37.7313462,21.6273947 L37.7313462,23.3805263 L33.8633077,27.3591316 C33.3980769,27.8388158 33.2074615,28.5265263 33.3601154,29.1799737 C33.5119615,29.8342368 33.9876923,30.3645 34.6176923,30.5823158 L37.7313462,31.6665 L37.7313462,33.9955789 L37.7313462,33.9955789 Z M41.8513846,48.1201579 L41.8513846,58.4007368 C41.8513846,59.9450263 43.0911923,61.1972632 44.6209615,61.1972632 C46.1523462,61.1972632 47.3913462,59.9450263 47.3913462,58.4007368 L47.3913462,48.1201579 L41.8546154,48.1201579 L41.8513846,48.1201579 L41.8513846,48.1201579 Z M62.3061923,27.3599474 L58.9300385,23.8879474 L58.9300385,21.6282105 C58.9300385,20.5880789 58.0973077,19.7445526 57.0666923,19.7445526 L53.0993077,19.7445526 L55.377,29.1938421 C56.3349231,29.2762368 57.0844615,30.0765263 57.0844615,31.0628158 C57.0844615,31.7342105 56.7339231,32.3207632 56.2113462,32.6536053 L56.9891538,35.8767895 L57.0666923,35.8767895 C58.0940769,35.8767895 58.9300385,35.0365263 58.9300385,33.9931316 L58.9300385,31.4935526 L61.5534231,30.5831316 C62.181,30.3645 62.6559231,29.8350526 62.8093846,29.1807895 C62.9620385,28.5273421 62.7730385,27.8388158 62.3061923,27.3599474 L62.3061923,27.3599474 Z M48.7789615,58.4007368 L48.7773462,58.4007368 C48.7773462,59.9450263 50.0171538,61.1972632 51.5461154,61.1972632 C53.0758846,61.1972632 54.3173077,59.9450263 54.3173077,58.4007368 L54.3173077,48.1201579 L48.7797692,48.1201579 L48.7797692,58.4007368 L48.7789615,58.4007368 Z" id="Shape"></path>
            </g>
            <path d="M83.352,23.136 C83.4320004,23.3600011 83.5959988,23.5119996 83.844,23.592 C84.0920012,23.6720004 84.4959972,23.712 85.056,23.712 C85.0880002,23.712 85.104,23.7599995 85.104,23.856 C85.104,23.9520005 85.0880002,24 85.056,24 C84.5279974,24 84.1120015,23.9920001 83.808,23.976 L82.032,23.952 L80.304,23.976 C79.9999985,23.9920001 79.5840026,24 79.056,24 C79.0079998,24 78.984,23.9520005 78.984,23.856 C78.984,23.7599995 79.0079998,23.712 79.056,23.712 C79.6000027,23.712 79.9959988,23.6720004 80.244,23.592 C80.4920012,23.5119996 80.6639995,23.3560012 80.76,23.124 C80.8560005,22.8919988 80.904,22.5360024 80.904,22.056 L80.904,10.944 C80.904,10.4639976 80.8560005,10.1120011 80.76,9.888 C80.6639995,9.66399888 80.4920012,9.50800044 80.244,9.42 C79.9959988,9.33199956 79.6000027,9.288 79.056,9.288 C79.0079998,9.288 78.984,9.24000048 78.984,9.144 C78.984,9.04799952 79.0079998,9 79.056,9 L80.304,9.024 C81.0080035,9.05600016 81.5839978,9.072 82.032,9.072 C82.5120024,9.072 83.1199963,9.05600016 83.856,9.024 L85.056,9 C85.0880002,9 85.104,9.04799952 85.104,9.144 C85.104,9.24000048 85.0880002,9.288 85.056,9.288 C84.5279974,9.288 84.1360013,9.33599952 83.88,9.432 C83.6239987,9.52800048 83.4520004,9.69199884 83.364,9.924 C83.2759996,10.1560012 83.232,10.5119976 83.232,10.992 L83.232,22.056 C83.232,22.5520025 83.2719996,22.9119989 83.352,23.136 L83.352,23.136 Z M98.304,23.856 C98.304,23.9520005 98.2720003,24 98.208,24 C97.807998,24 97.4880012,23.9920001 97.248,23.976 L95.88,23.952 L94.512,23.976 C94.2719988,23.9920001 93.9440021,24 93.528,24 C93.4959998,24 93.48,23.9520005 93.48,23.856 C93.48,23.7599995 93.4959998,23.712 93.528,23.712 C94.0720027,23.712 94.4359991,23.6000011 94.62,23.376 C94.8040009,23.1519989 94.896,22.7120033 94.896,22.056 L94.896,18.456 C94.896,17.5599955 94.7320016,16.9000021 94.404,16.476 C94.0759984,16.0519979 93.5600035,15.84 92.856,15.84 C92.4239978,15.84 91.9880022,15.939999 91.548,16.14 C91.1079978,16.340001 90.7200017,16.6079983 90.384,16.944 L90.384,22.056 C90.384,22.7120033 90.4759991,23.1519989 90.66,23.376 C90.8440009,23.6000011 91.2079973,23.712 91.752,23.712 C91.8160003,23.712 91.848,23.7599995 91.848,23.856 C91.848,23.9520005 91.8160003,24 91.752,24 C91.351998,24 91.0320012,23.9920001 90.792,23.976 L89.424,23.952 L88.056,23.976 C87.8159988,23.9920001 87.4880021,24 87.072,24 C87.0399998,24 87.024,23.9520005 87.024,23.856 C87.024,23.7599995 87.0399998,23.712 87.072,23.712 C87.6160027,23.712 87.9799991,23.6000011 88.164,23.376 C88.3480009,23.1519989 88.44,22.7120033 88.44,22.056 L88.44,17.472 C88.44,16.9599974 88.3800006,16.5880012 88.26,16.356 C88.1399994,16.1239988 87.9440014,16.008 87.672,16.008 C87.3999986,16.008 86.9920027,16.1199989 86.448,16.344 L86.424,16.344 C86.3599997,16.344 86.3160001,16.3040004 86.292,16.224 C86.2679999,16.1439996 86.2799998,16.0960001 86.328,16.08 L89.496,14.544 C89.5600003,14.5119998 89.6079998,14.496 89.64,14.496 C89.8160009,14.496 89.9799992,14.6719982 90.132,15.024 C90.2840008,15.3760018 90.3679999,15.847997 90.384,16.44 C91.5040056,15.1119934 92.7279934,14.448 94.056,14.448 C94.9200043,14.448 95.5999975,14.7159973 96.096,15.252 C96.5920025,15.7880027 96.84,16.5119954 96.84,17.424 L96.84,22.056 C96.84,22.7120033 96.9319991,23.1519989 97.116,23.376 C97.3000009,23.6000011 97.6639973,23.712 98.208,23.712 C98.2720003,23.712 98.304,23.7599995 98.304,23.856 L98.304,23.856 Z M108.696,22.704 C108.76,22.704 108.804,22.7399996 108.828,22.812 C108.852,22.8840004 108.832,22.9359998 108.768,22.968 L106.296,24.144 C106.2,24.1760002 106.12,24.192 106.056,24.192 C105.815999,24.192 105.588001,24.0560014 105.372,23.784 C105.155999,23.5119986 105.016,23.1360024 104.952,22.656 L103.848,23.424 C103.463998,23.6960014 103.120002,23.8879994 102.816,24 C102.511998,24.1120006 102.168002,24.168 101.784,24.168 C101.111997,24.168 100.604002,24.0160015 100.26,23.712 C99.9159983,23.4079985 99.744,22.9920026 99.744,22.464 C99.744,22.0319978 99.8599988,21.6800014 100.092,21.408 C100.324001,21.1359986 100.611998,20.9200008 100.956,20.76 C101.300002,20.5999992 101.839996,20.3840014 102.576,20.112 L104.904,19.248 L104.904,17.808 C104.904,16.799995 104.804001,16.0720022 104.604,15.624 C104.403999,15.1759978 104.088002,14.952 103.656,14.952 C103.127997,14.952 102.748001,15.147998 102.516,15.54 C102.283999,15.932002 102.144,16.3679976 102.096,16.848 C102,17.6800042 101.592004,18.096 100.872,18.096 C100.519998,18.096 100.260001,18.0160008 100.092,17.856 C99.9239992,17.6959992 99.84,17.4880013 99.84,17.232 C99.84,16.7839978 100.107997,16.3480021 100.644,15.924 C101.180003,15.4999979 101.827996,15.1560013 102.588,14.892 C103.348004,14.6279987 104.015997,14.496 104.592,14.496 C105.280003,14.496 105.827998,14.7159978 106.236,15.156 C106.644002,15.5960022 106.848,16.2319958 106.848,17.064 L106.848,21.408 C106.848,22.416005 107.167997,22.92 107.808,22.92 C108.032001,22.92 108.311998,22.8480007 108.648,22.704 L108.696,22.704 Z M104.904,22.248 L104.904,22.032 L104.904,19.656 L103.464,20.256 C103.047998,20.4160008 102.708001,20.6039989 102.444,20.82 C102.179999,21.0360011 102.048,21.343998 102.048,21.744 C102.048,22.144002 102.171999,22.4599988 102.42,22.692 C102.668001,22.9240012 102.967998,23.04 103.32,23.04 C103.592001,23.04 103.887998,22.9280011 104.208,22.704 L104.904,22.248 Z M131.616,23.868 C131.616,23.9560004 131.592,24 131.544,24 L128.064,24 C127.551997,24 126.672006,23.5520045 125.424,22.656 C124.207994,23.7440054 122.64801,24.288 120.744,24.288 C119.671995,24.288 118.776004,24.1240016 118.056,23.796 C117.335996,23.4679984 116.800002,23.0400026 116.448,22.512 C116.095998,21.9839974 115.92,21.416003 115.92,20.808 C115.92,19.9759958 116.187997,19.2480031 116.724,18.624 C117.260003,17.9999969 118.063995,17.288004 119.136,16.488 C118.927999,16.1679984 118.688001,15.7760023 118.416,15.312 C118.175999,14.8639978 118.000001,14.436002 117.888,14.028 C117.775999,13.619998 117.72,13.1840023 117.72,12.72 C117.72,11.919996 117.899998,11.2000032 118.26,10.56 C118.620002,9.9199968 119.131997,9.41600184 119.796,9.048 C120.460003,8.67999816 121.231996,8.496 122.112,8.496 C123.024005,8.496 123.767997,8.695998 124.344,9.096 C124.920003,9.496002 125.208,10.0879961 125.208,10.872 C125.208,11.464003 125.052002,12.0079975 124.74,12.504 C124.427998,13.0000025 124.040002,13.4359981 123.576,13.812 C123.111998,14.1880019 122.496004,14.6319974 121.728,15.144 L121.272,15.456 C121.864003,16.3680046 122.587996,17.2639956 123.444,18.144 C124.300004,19.0240044 125.223995,19.8479962 126.216,20.616 C126.472001,19.9599967 126.6,19.1760046 126.6,18.264 C126.6,17.4479959 126.460001,16.8520019 126.18,16.476 C125.899999,16.0999981 125.416003,15.912 124.728,15.912 C124.696,15.912 124.676,15.8640005 124.668,15.768 C124.66,15.6719995 124.68,15.624 124.728,15.624 L130.2,15.6 C130.264,15.6 130.296,15.6479995 130.296,15.744 C130.296,15.8400005 130.264,15.888 130.2,15.888 C129.703998,15.888 129.332001,15.9399995 129.084,16.044 C128.835999,16.1480005 128.656001,16.3079989 128.544,16.524 C128.431999,16.7400011 128.304001,17.0879976 128.16,17.568 C127.967999,18.2400034 127.768001,18.8519972 127.56,19.404 C127.351999,19.9560028 127.080002,20.4959974 126.744,21.024 C127.752005,21.7760038 128.675996,22.3839977 129.516,22.848 C130.356004,23.3120023 131.031997,23.5999994 131.544,23.712 C131.592,23.7280001 131.616,23.7799996 131.616,23.868 L131.616,23.868 Z M121.008,15.048 C121.648003,14.4879972 122.143998,13.912003 122.496,13.32 C122.848002,12.727997 123.024,12.0720036 123.024,11.352 C123.024,10.6479965 122.852002,10.096002 122.508,9.696 C122.163998,9.295998 121.712003,9.096 121.152,9.096 C120.175995,9.096 119.688,9.7359936 119.688,11.016 C119.688,12.2480062 120.127996,13.5919927 121.008,15.048 L121.008,15.048 Z M125.016,22.368 L124.176,21.696 C123.295996,20.9919965 122.432004,20.2160042 121.584,19.368 C120.735996,18.5199958 120.008003,17.6880041 119.4,16.872 C118.487995,17.7040042 118.032,18.615995 118.032,19.608 C118.032,20.2480032 118.211998,20.8479972 118.572,21.408 C118.932002,21.9680028 119.435997,22.4159983 120.084,22.752 C120.732003,23.0880017 121.479996,23.256 122.328,23.256 C123.432006,23.256 124.327997,22.960003 125.016,22.368 L125.016,22.368 Z M144.072,9.144 C144.072,9.24000048 144.056,9.288 144.024,9.288 C143.575998,9.288 143.244001,9.33599952 143.028,9.432 C142.811999,9.52800048 142.668,9.69199884 142.596,9.924 C142.524,10.1560012 142.488,10.5119976 142.488,10.992 L142.488,24.288 C142.488,26.0160086 142.072004,27.3719951 141.24,28.356 C140.407996,29.3400049 139.232008,29.832 137.712,29.832 C137.119997,29.832 136.640002,29.7160012 136.272,29.484 C135.903998,29.2519988 135.72,28.936002 135.72,28.536 C135.72,28.2319985 135.815999,27.9720011 136.008,27.756 C136.200001,27.5399989 136.479998,27.432 136.848,27.432 C137.200002,27.432 137.471999,27.531999 137.664,27.732 C137.856001,27.932001 138.031999,28.2079982 138.192,28.56 C138.304001,28.8160013 138.415999,29.0079994 138.528,29.136 C138.640001,29.2640006 138.775999,29.328 138.936,29.328 C139.352002,29.328 139.659999,29.0360029 139.86,28.452 C140.060001,27.8679971 140.16,26.9120066 140.16,25.584 L140.16,10.944 C140.16,10.4639976 140.108001,10.1120011 140.004,9.888 C139.899999,9.66399888 139.700001,9.50800044 139.404,9.42 C139.107999,9.33199956 138.648003,9.288 138.024,9.288 C137.992,9.288 137.976,9.24000048 137.976,9.144 C137.976,9.04799952 137.992,9 138.024,9 L139.464,9.024 C140.232004,9.05600016 140.839998,9.072 141.288,9.072 C141.736002,9.072 142.279997,9.05600016 142.92,9.024 L144.024,9 C144.056,9 144.072,9.04799952 144.072,9.144 L144.072,9.144 Z M147.696,23.628 C146.959996,23.1719977 146.392002,22.5560039 145.992,21.78 C145.591998,21.0039961 145.392,20.1600046 145.392,19.248 C145.392,18.2079948 145.651997,17.3240036 146.172,16.596 C146.692003,15.8679964 147.355996,15.3240018 148.164,14.964 C148.972004,14.6039982 149.799996,14.424 150.648,14.424 C151.624005,14.424 152.475996,14.6559977 153.204,15.12 C153.932004,15.5840023 154.491998,16.1959962 154.884,16.956 C155.276002,17.7160038 155.472,18.5279957 155.472,19.392 C155.472,20.3520048 155.232002,21.2079962 154.752,21.96 C154.271998,22.7120038 153.636004,23.291998 152.844,23.7 C152.051996,24.108002 151.192005,24.312 150.264,24.312 C149.287995,24.312 148.432004,24.0840023 147.696,23.628 L147.696,23.628 Z M152.592,22.896 C152.976002,22.2719969 153.168,21.360006 153.168,20.16 C153.168,19.0879946 153.016002,18.156004 152.712,17.364 C152.407998,16.571996 152.004003,15.9680021 151.5,15.552 C150.995997,15.1359979 150.448003,14.928 149.856,14.928 C149.151996,14.928 148.612002,15.2199971 148.236,15.804 C147.859998,16.3880029 147.672,17.2559942 147.672,18.408 C147.672,19.4480052 147.815999,20.3799959 148.104,21.204 C148.392001,22.0280041 148.783998,22.6719977 149.28,23.136 C149.776002,23.6000023 150.327997,23.832 150.936,23.832 C151.656004,23.832 152.207998,23.5200031 152.592,22.896 L152.592,22.896 Z M168.456,23.856 C168.456,23.9520005 168.424,24 168.36,24 C167.959998,24 167.640001,23.9920001 167.4,23.976 L166.032,23.952 L164.664,23.976 C164.423999,23.9920001 164.096002,24 163.68,24 C163.648,24 163.632,23.9520005 163.632,23.856 C163.632,23.7599995 163.648,23.712 163.68,23.712 C164.224003,23.712 164.587999,23.6000011 164.772,23.376 C164.956001,23.1519989 165.048,22.7120033 165.048,22.056 L165.048,18.456 C165.048,17.5599955 164.884002,16.9000021 164.556,16.476 C164.227998,16.0519979 163.712004,15.84 163.008,15.84 C162.575998,15.84 162.140002,15.939999 161.7,16.14 C161.259998,16.340001 160.872002,16.6079983 160.536,16.944 L160.536,22.056 C160.536,22.7120033 160.627999,23.1519989 160.812,23.376 C160.996001,23.6000011 161.359997,23.712 161.904,23.712 C161.968,23.712 162,23.7599995 162,23.856 C162,23.9520005 161.968,24 161.904,24 C161.503998,24 161.184001,23.9920001 160.944,23.976 L159.576,23.952 L158.208,23.976 C157.967999,23.9920001 157.640002,24 157.224,24 C157.192,24 157.176,23.9520005 157.176,23.856 C157.176,23.7599995 157.192,23.712 157.224,23.712 C157.768003,23.712 158.131999,23.6000011 158.316,23.376 C158.500001,23.1519989 158.592,22.7120033 158.592,22.056 L158.592,17.472 C158.592,16.9599974 158.532001,16.5880012 158.412,16.356 C158.291999,16.1239988 158.096001,16.008 157.824,16.008 C157.551999,16.008 157.144003,16.1199989 156.6,16.344 L156.576,16.344 C156.512,16.344 156.468,16.3040004 156.444,16.224 C156.42,16.1439996 156.432,16.0960001 156.48,16.08 L159.648,14.544 C159.712,14.5119998 159.76,14.496 159.792,14.496 C159.968001,14.496 160.131999,14.6719982 160.284,15.024 C160.436001,15.3760018 160.52,15.847997 160.536,16.44 C161.656006,15.1119934 162.879993,14.448 164.208,14.448 C165.072004,14.448 165.751998,14.7159973 166.248,15.252 C166.744002,15.7880027 166.992,16.5119954 166.992,17.424 L166.992,22.056 C166.992,22.7120033 167.083999,23.1519989 167.268,23.376 C167.452001,23.6000011 167.815997,23.712 168.36,23.712 C168.424,23.712 168.456,23.7599995 168.456,23.856 L168.456,23.856 Z M178.848,22.704 C178.912,22.704 178.956,22.7399996 178.98,22.812 C179.004,22.8840004 178.984,22.9359998 178.92,22.968 L176.448,24.144 C176.352,24.1760002 176.272,24.192 176.208,24.192 C175.967999,24.192 175.740001,24.0560014 175.524,23.784 C175.307999,23.5119986 175.168,23.1360024 175.104,22.656 L174,23.424 C173.615998,23.6960014 173.272002,23.8879994 172.968,24 C172.663998,24.1120006 172.320002,24.168 171.936,24.168 C171.263997,24.168 170.756002,24.0160015 170.412,23.712 C170.067998,23.4079985 169.896,22.9920026 169.896,22.464 C169.896,22.0319978 170.011999,21.6800014 170.244,21.408 C170.476001,21.1359986 170.763998,20.9200008 171.108,20.76 C171.452002,20.5999992 171.991996,20.3840014 172.728,20.112 L175.056,19.248 L175.056,17.808 C175.056,16.799995 174.956001,16.0720022 174.756,15.624 C174.555999,15.1759978 174.240002,14.952 173.808,14.952 C173.279997,14.952 172.900001,15.147998 172.668,15.54 C172.435999,15.932002 172.296,16.3679976 172.248,16.848 C172.152,17.6800042 171.744004,18.096 171.024,18.096 C170.671998,18.096 170.412001,18.0160008 170.244,17.856 C170.075999,17.6959992 169.992,17.4880013 169.992,17.232 C169.992,16.7839978 170.259997,16.3480021 170.796,15.924 C171.332003,15.4999979 171.979996,15.1560013 172.74,14.892 C173.500004,14.6279987 174.167997,14.496 174.744,14.496 C175.432003,14.496 175.979998,14.7159978 176.388,15.156 C176.796002,15.5960022 177,16.2319958 177,17.064 L177,21.408 C177,22.416005 177.319997,22.92 177.96,22.92 C178.184001,22.92 178.463998,22.8480007 178.8,22.704 L178.848,22.704 Z M175.056,22.248 L175.056,22.032 L175.056,19.656 L173.616,20.256 C173.199998,20.4160008 172.860001,20.6039989 172.596,20.82 C172.331999,21.0360011 172.2,21.343998 172.2,21.744 C172.2,22.144002 172.323999,22.4599988 172.572,22.692 C172.820001,22.9240012 173.119998,23.04 173.472,23.04 C173.744001,23.04 174.039998,22.9280011 174.36,22.704 L175.056,22.248 Z M182.088,17.244 C182.424002,17.5720016 182.919997,17.9199982 183.576,18.288 C184.152003,18.6080016 184.599998,18.871999 184.92,19.08 C185.240002,19.288001 185.515999,19.5679982 185.748,19.92 C185.980001,20.2720018 186.096,20.6959975 186.096,21.192 C186.096,21.7360027 185.960001,22.2399977 185.688,22.704 C185.415999,23.1680023 185.012003,23.5439986 184.476,23.832 C183.939997,24.1200014 183.304004,24.264 182.568,24.264 C181.719996,24.264 180.912004,24.0400022 180.144,23.592 C180.048,23.4959995 180,23.4000005 180,23.304 L179.952,21.096 C179.952,21.0479998 179.996,21.02 180.084,21.012 C180.172,21.004 180.224,21.0239998 180.24,21.072 C180.512001,21.8560039 180.927997,22.5039974 181.488,23.016 C182.048003,23.5280026 182.639997,23.784 183.264,23.784 C183.648002,23.784 183.951999,23.680001 184.176,23.472 C184.400001,23.263999 184.512,22.960002 184.512,22.56 C184.512,21.9359969 184.336002,21.4480018 183.984,21.096 C183.631998,20.7439982 183.120003,20.3840018 182.448,20.016 C181.903997,19.7279986 181.480002,19.484001 181.176,19.284 C180.871998,19.083999 180.612001,18.8160017 180.396,18.48 C180.179999,18.1439983 180.072,17.7200026 180.072,17.208 C180.072,16.2959954 180.403997,15.6120023 181.068,15.156 C181.732003,14.6999977 182.535995,14.472 183.48,14.472 C184.104003,14.472 184.743997,14.5919988 185.4,14.832 C185.544001,14.8960003 185.616,14.9839994 185.616,15.096 C185.616,15.4640018 185.608,15.751999 185.592,15.96 L185.568,17.112 C185.568,17.1600002 185.52,17.184 185.424,17.184 C185.328,17.184 185.28,17.1600002 185.28,17.112 C185.28,16.7919984 185.152001,16.4640017 184.896,16.128 C184.639999,15.7919983 184.312002,15.5120011 183.912,15.288 C183.511998,15.0639989 183.104002,14.952 182.688,14.952 C181.951996,14.952 181.584,15.2959966 181.584,15.984 C181.584,16.4960026 181.751998,16.9159984 182.088,17.244 L182.088,17.244 Z M88.032,54.704 C88.0960003,54.704 88.1399999,54.7399996 88.164,54.812 C88.1880001,54.8840004 88.1680003,54.9359998 88.104,54.968 L85.632,56.144 C85.5359995,56.1760002 85.4560003,56.192 85.392,56.192 C85.1519988,56.192 84.9240011,56.0560014 84.708,55.784 C84.4919989,55.5119986 84.3520003,55.1360024 84.288,54.656 L83.184,55.424 C82.7999981,55.6960014 82.4560015,55.8879994 82.152,56 C81.8479985,56.1120006 81.5040019,56.168 81.12,56.168 C80.4479966,56.168 79.9400017,56.0160015 79.596,55.712 C79.2519983,55.4079985 79.08,54.9920026 79.08,54.464 C79.08,54.0319978 79.1959988,53.6800014 79.428,53.408 C79.6600012,53.1359986 79.9479983,52.9200008 80.292,52.76 C80.6360017,52.5999992 81.1759963,52.3840014 81.912,52.112 L84.24,51.248 L84.24,49.808 C84.24,48.799995 84.140001,48.0720022 83.94,47.624 C83.739999,47.1759978 83.4240022,46.952 82.992,46.952 C82.4639974,46.952 82.0840012,47.147998 81.852,47.54 C81.6199988,47.932002 81.4800002,48.3679976 81.432,48.848 C81.3359995,49.6800042 80.9280036,50.096 80.208,50.096 C79.8559982,50.096 79.5960008,50.0160008 79.428,49.856 C79.2599992,49.6959992 79.176,49.4880013 79.176,49.232 C79.176,48.7839978 79.4439973,48.3480021 79.98,47.924 C80.5160027,47.4999979 81.1639962,47.1560013 81.924,46.892 C82.6840038,46.6279987 83.3519971,46.496 83.928,46.496 C84.6160034,46.496 85.163998,46.7159978 85.572,47.156 C85.980002,47.5960022 86.184,48.2319958 86.184,49.064 L86.184,53.408 C86.184,54.416005 86.5039968,54.92 87.144,54.92 C87.3680011,54.92 87.6479983,54.8480007 87.984,54.704 L88.032,54.704 Z M84.24,54.248 L84.24,54.032 L84.24,51.656 L82.8,52.256 C82.3839979,52.4160008 82.0440013,52.6039989 81.78,52.82 C81.5159987,53.0360011 81.384,53.343998 81.384,53.744 C81.384,54.144002 81.5079988,54.4599988 81.756,54.692 C82.0040012,54.9240012 82.3039982,55.04 82.656,55.04 C82.9280014,55.04 83.2239984,54.9280011 83.544,54.704 L84.24,54.248 Z M99.936,54.488 C100,54.488 100.052,54.5279996 100.092,54.608 C100.132,54.6880004 100.12,54.7439998 100.056,54.776 L96.936,56.288 L96.816,56.312 C96.6559992,56.312 96.5120006,56.1280018 96.384,55.76 C96.2559994,55.3919982 96.1840001,54.912003 96.168,54.32 C95.0639945,55.6000064 93.8800063,56.24 92.616,56.24 C91.7679958,56.24 91.0960025,55.9720027 90.6,55.436 C90.1039975,54.8999973 89.856,54.1760046 89.856,53.264 L89.856,49.712 C89.856,49.1359971 89.8000006,48.7160013 89.688,48.452 C89.5759994,48.1879987 89.3920013,48.056 89.136,48.056 C88.9759992,48.056 88.7520014,48.1199994 88.464,48.248 L88.416,48.248 C88.3679998,48.248 88.3280002,48.2040004 88.296,48.116 C88.2639998,48.0279996 88.2719998,47.9760001 88.32,47.96 L91.368,46.544 L91.464,46.52 C91.5280003,46.52 91.5999996,46.5519997 91.68,46.616 C91.7600004,46.6800003 91.8,46.7359998 91.8,46.784 L91.8,52.232 C91.8,54.0080089 92.4719933,54.896 93.816,54.896 C94.216002,54.896 94.6239979,54.800001 95.04,54.608 C95.4560021,54.415999 95.8319983,54.1520017 96.168,53.816 L96.168,49.712 C96.168,49.1359971 96.1120006,48.7160013 96,48.452 C95.8879994,48.1879987 95.7040013,48.056 95.448,48.056 C95.2879992,48.056 95.0560015,48.1199994 94.752,48.248 L94.704,48.248 C94.6559998,48.248 94.6200001,48.2040004 94.596,48.116 C94.5719999,48.0279996 94.5839998,47.9760001 94.632,47.96 L97.656,46.544 L97.776,46.52 C97.8400003,46.52 97.9119996,46.5519997 97.992,46.616 C98.0720004,46.6800003 98.112,46.7359998 98.112,46.784 L98.112,53.288 C98.112,53.8480028 98.1679994,54.2399989 98.28,54.464 C98.3920006,54.6880011 98.5759987,54.8 98.832,54.8 C99.0560011,54.8 99.4159975,54.696001 99.912,54.488 L99.936,54.488 Z M109.836,38.948 C110.340003,39.1960012 110.592,39.5279979 110.592,39.944 C110.592,40.2640016 110.480001,40.519999 110.256,40.712 C110.031999,40.904001 109.776001,41 109.488,41 C109.167998,41 108.932001,40.9280007 108.78,40.784 C108.627999,40.6399993 108.464001,40.4080016 108.288,40.088 C108.095999,39.7519983 107.904001,39.5000008 107.712,39.332 C107.519999,39.1639992 107.232002,39.08 106.848,39.08 C106.047996,39.08 105.416002,39.5999948 104.952,40.64 C104.487998,41.6800052 104.256,43.2879891 104.256,45.464 L104.256,46.952 C105.104004,46.9359999 106.039995,46.8640006 107.064,46.736 C107.096,46.736 107.132,46.7959994 107.172,46.916 C107.212,47.0360006 107.232,47.1679993 107.232,47.312 C107.232,47.4560007 107.204,47.6039992 107.148,47.756 C107.092,47.9080008 107.032,47.9760001 106.968,47.96 C106.055995,47.7199988 105.152004,47.5920001 104.256,47.576 L104.256,54.056 C104.256,54.5520025 104.307999,54.9119989 104.412,55.136 C104.516001,55.3600011 104.715999,55.5119996 105.012,55.592 C105.308001,55.6720004 105.791997,55.712 106.464,55.712 C106.528,55.712 106.56,55.7599995 106.56,55.856 C106.56,55.9520005 106.528,56 106.464,56 L104.856,55.976 C104.503998,55.9599999 103.976004,55.952 103.272,55.952 L101.832,55.976 C101.575999,55.9920001 101.224002,56 100.776,56 C100.728,56 100.704,55.9520005 100.704,55.856 C100.704,55.7599995 100.728,55.712 100.776,55.712 C101.224002,55.712 101.547999,55.6720004 101.748,55.592 C101.948001,55.5119996 102.088,55.3560012 102.168,55.124 C102.248,54.8919988 102.288,54.5360024 102.288,54.056 L102.288,48.656 C102.288,48.2879982 102.244,48.0200008 102.156,47.852 C102.068,47.6839992 101.916001,47.5720003 101.7,47.516 C101.483999,47.4599997 101.152002,47.432 100.704,47.432 C100.672,47.432 100.648,47.4120002 100.632,47.372 C100.616,47.3319998 100.608,47.2800003 100.608,47.216 C100.608,47.1679998 100.62,47.1240002 100.644,47.084 C100.668,47.0439998 100.688,47.024 100.704,47.024 C101.296003,47.024 101.699999,46.9480008 101.916,46.796 C102.132001,46.6439992 102.248,46.368002 102.264,45.968 C102.344,43.359987 102.831996,41.4760058 103.728,40.316 C104.624004,39.1559942 105.967991,38.576 107.76,38.576 C108.640004,38.576 109.331997,38.6999988 109.836,38.948 L109.836,38.948 Z M129.888,55.856 C129.888,55.9520005 129.864,56 129.816,56 L125.952,56 C125.583998,56 124.900005,55.3320067 123.9,53.996 C122.899995,52.6599933 121.680007,50.792012 120.24,48.392 C119.983999,48.4400002 119.712001,48.464 119.424,48.464 C118.847997,48.464 118.440001,48.4560001 118.2,48.44 L118.2,54.056 C118.2,54.5520025 118.244,54.9119989 118.332,55.136 C118.42,55.3600011 118.587999,55.5119996 118.836,55.592 C119.084001,55.6720004 119.479997,55.712 120.024,55.712 C120.056,55.712 120.072,55.7599995 120.072,55.856 C120.072,55.9520005 120.056,56 120.024,56 C119.495997,56 119.080002,55.9920001 118.776,55.976 L117.024,55.952 L115.32,55.976 C115.015998,55.9920001 114.592003,56 114.048,56 C114,56 113.976,55.9520005 113.976,55.856 C113.976,55.7599995 114,55.712 114.048,55.712 C114.592003,55.712 114.987999,55.6720004 115.236,55.592 C115.484001,55.5119996 115.656,55.3560012 115.752,55.124 C115.848,54.8919988 115.896,54.5360024 115.896,54.056 L115.896,42.944 C115.896,42.4639976 115.852,42.1120011 115.764,41.888 C115.676,41.6639989 115.504001,41.5080004 115.248,41.42 C114.991999,41.3319996 114.600003,41.288 114.072,41.288 C114.04,41.288 114.024,41.2400005 114.024,41.144 C114.024,41.0479995 114.04,41 114.072,41 L115.32,41.024 C116.024004,41.0560002 116.591998,41.072 117.024,41.072 C117.504002,41.072 118.007997,41.0480002 118.536,41 C118.728001,40.9839999 118.959999,40.9680001 119.232,40.952 C119.504001,40.9359999 119.799998,40.928 120.12,40.928 C121.544007,40.928 122.639996,41.1959973 123.408,41.732 C124.176004,42.2680027 124.56,43.0159952 124.56,43.976 C124.56,44.7280038 124.340002,45.4359967 123.9,46.1 C123.459998,46.7640033 122.872004,47.3039979 122.136,47.72 C123.448007,49.7360101 124.547996,51.3159943 125.436,52.46 C126.324004,53.6040057 127.111997,54.4319974 127.8,54.944 C128.488003,55.4560026 129.159997,55.712 129.816,55.712 C129.864,55.712 129.888,55.7599995 129.888,55.856 L129.888,55.856 Z M119.592,47.864 C120.552005,47.864 121.223998,47.6480022 121.608,47.216 C121.992002,46.7839978 122.184,45.9920058 122.184,44.84 C122.184,43.5439935 121.968002,42.6440025 121.536,42.14 C121.103998,41.6359975 120.496004,41.384 119.712,41.384 C119.135997,41.384 118.740001,41.4959989 118.524,41.72 C118.307999,41.9440011 118.2,42.3679969 118.2,42.992 L118.2,47.792 C118.632002,47.8400002 119.095998,47.864 119.592,47.864 L119.592,47.864 Z M138.264,54.488 C138.296,54.488 138.332,54.5199997 138.372,54.584 C138.412,54.6480003 138.416,54.6959998 138.384,54.728 C137.791997,55.2720027 137.200003,55.6679988 136.608,55.916 C136.015997,56.1640012 135.376003,56.288 134.688,56.288 C133.711995,56.288 132.868004,56.0760021 132.156,55.652 C131.443996,55.2279979 130.900002,54.6600036 130.524,53.948 C130.147998,53.2359964 129.96,52.4640042 129.96,51.632 C129.96,50.7039954 130.191998,49.8480039 130.656,49.064 C131.120002,48.2799961 131.755996,47.6600023 132.564,47.204 C133.372004,46.7479977 134.279995,46.52 135.288,46.52 C136.232005,46.52 136.967997,46.7519977 137.496,47.216 C138.024003,47.6800023 138.288,48.3679954 138.288,49.28 C138.288,49.5200012 138.268,49.6959994 138.228,49.808 C138.188,49.9200006 138.112001,49.976 138,49.976 L132.144,50 C132.128,50.1440007 132.12,50.3679985 132.12,50.672 C132.12,52.064007 132.443997,53.1679959 133.092,53.984 C133.740003,54.8000041 134.663994,55.208 135.864,55.208 C136.312002,55.208 136.691998,55.1560005 137.004,55.052 C137.316002,54.9479995 137.719998,54.7680013 138.216,54.512 L138.264,54.488 Z M132.948,47.684 C132.571998,48.1400023 132.320001,48.767996 132.192,49.568 L136.008,49.52 C136.008,47.8399916 135.472005,47 134.4,47 C133.807997,47 133.324002,47.2279977 132.948,47.684 L132.948,47.684 Z M140.088,55.856 C140.088,55.7599995 140.112,55.712 140.16,55.712 C140.688003,55.712 141.047999,55.5960012 141.24,55.364 C141.432001,55.1319988 141.528,54.6960032 141.528,54.056 L141.528,49.712 C141.528,49.1519972 141.468001,48.7480012 141.348,48.5 C141.227999,48.2519988 141.032001,48.128 140.76,48.128 C140.519999,48.128 140.200002,48.223999 139.8,48.416 L139.776,48.416 C139.712,48.416 139.668,48.3760004 139.644,48.296 C139.62,48.2159996 139.632,48.1600002 139.68,48.128 L143.112,46.52 L143.208,46.496 C143.272,46.496 143.34,46.5319996 143.412,46.604 C143.484,46.6760004 143.52,46.7359998 143.52,46.784 L143.52,47.288 C143.488,47.9600034 143.472,48.7519954 143.472,49.664 L143.472,54.056 C143.472,54.7120033 143.563999,55.1519989 143.748,55.376 C143.932001,55.6000011 144.295997,55.712 144.84,55.712 C144.888,55.712 144.912,55.7599995 144.912,55.856 C144.912,55.9520005 144.888,56 144.84,56 C144.423998,56 144.096001,55.9920001 143.856,55.976 L142.488,55.952 L141.12,55.976 C140.879999,55.9920001 140.560002,56 140.16,56 C140.112,56 140.088,55.9520005 140.088,55.856 L140.088,55.856 Z M141.36,43.652 C141.119999,43.4199988 141,43.0960021 141,42.68 C141,42.2959981 141.119999,41.9920011 141.36,41.768 C141.600001,41.5439989 141.927998,41.432 142.344,41.432 C142.744002,41.432 143.055999,41.5439989 143.28,41.768 C143.504001,41.9920011 143.616,42.2959981 143.616,42.68 C143.616,43.0960021 143.504001,43.4199988 143.28,43.652 C143.055999,43.8840012 142.744002,44 142.344,44 C141.927998,44 141.600001,43.8840012 141.36,43.652 L141.36,43.652 Z M148.68,49.244 C149.016002,49.5720016 149.511997,49.9199982 150.168,50.288 C150.744003,50.6080016 151.191998,50.871999 151.512,51.08 C151.832002,51.288001 152.107999,51.5679982 152.34,51.92 C152.572001,52.2720018 152.688,52.6959975 152.688,53.192 C152.688,53.7360027 152.552001,54.2399977 152.28,54.704 C152.007999,55.1680023 151.604003,55.5439986 151.068,55.832 C150.531997,56.1200014 149.896004,56.264 149.16,56.264 C148.311996,56.264 147.504004,56.0400022 146.736,55.592 C146.64,55.4959995 146.592,55.4000005 146.592,55.304 L146.544,53.096 C146.544,53.0479998 146.588,53.02 146.676,53.012 C146.764,53.004 146.816,53.0239998 146.832,53.072 C147.104001,53.8560039 147.519997,54.5039974 148.08,55.016 C148.640003,55.5280026 149.231997,55.784 149.856,55.784 C150.240002,55.784 150.543999,55.680001 150.768,55.472 C150.992001,55.263999 151.104,54.960002 151.104,54.56 C151.104,53.9359969 150.928002,53.4480018 150.576,53.096 C150.223998,52.7439982 149.712003,52.3840018 149.04,52.016 C148.495997,51.7279986 148.072002,51.484001 147.768,51.284 C147.463998,51.083999 147.204001,50.8160017 146.988,50.48 C146.771999,50.1439983 146.664,49.7200026 146.664,49.208 C146.664,48.2959954 146.995997,47.6120023 147.66,47.156 C148.324003,46.6999977 149.127995,46.472 150.072,46.472 C150.696003,46.472 151.335997,46.5919988 151.992,46.832 C152.136001,46.8960003 152.208,46.9839994 152.208,47.096 C152.208,47.4640018 152.2,47.751999 152.184,47.96 L152.16,49.112 C152.16,49.1600002 152.112,49.184 152.016,49.184 C151.92,49.184 151.872,49.1600002 151.872,49.112 C151.872,48.7919984 151.744001,48.4640017 151.488,48.128 C151.231999,47.7919983 150.904002,47.5120011 150.504,47.288 C150.103998,47.0639989 149.696002,46.952 149.28,46.952 C148.543996,46.952 148.176,47.2959966 148.176,47.984 C148.176,48.4960026 148.343998,48.9159984 148.68,49.244 L148.68,49.244 Z M162.672,54.488 C162.704,54.488 162.74,54.5199997 162.78,54.584 C162.82,54.6480003 162.824,54.6959998 162.792,54.728 C162.199997,55.2720027 161.608003,55.6679988 161.016,55.916 C160.423997,56.1640012 159.784003,56.288 159.096,56.288 C158.119995,56.288 157.276004,56.0760021 156.564,55.652 C155.851996,55.2279979 155.308002,54.6600036 154.932,53.948 C154.555998,53.2359964 154.368,52.4640042 154.368,51.632 C154.368,50.7039954 154.599998,49.8480039 155.064,49.064 C155.528002,48.2799961 156.163996,47.6600023 156.972,47.204 C157.780004,46.7479977 158.687995,46.52 159.696,46.52 C160.640005,46.52 161.375997,46.7519977 161.904,47.216 C162.432003,47.6800023 162.696,48.3679954 162.696,49.28 C162.696,49.5200012 162.676,49.6959994 162.636,49.808 C162.596,49.9200006 162.520001,49.976 162.408,49.976 L156.552,50 C156.536,50.1440007 156.528,50.3679985 156.528,50.672 C156.528,52.064007 156.851997,53.1679959 157.5,53.984 C158.148003,54.8000041 159.071994,55.208 160.272,55.208 C160.720002,55.208 161.099998,55.1560005 161.412,55.052 C161.724002,54.9479995 162.127998,54.7680013 162.624,54.512 L162.672,54.488 Z M157.356,47.684 C156.979998,48.1400023 156.728001,48.767996 156.6,49.568 L160.416,49.52 C160.416,47.8399916 159.880005,47 158.808,47 C158.215997,47 157.732002,47.2279977 157.356,47.684 L157.356,47.684 Z M175.704,55.856 C175.704,55.9520005 175.672,56 175.608,56 C175.207998,56 174.888001,55.9920001 174.648,55.976 L173.28,55.952 L171.912,55.976 C171.671999,55.9920001 171.344002,56 170.928,56 C170.896,56 170.88,55.9520005 170.88,55.856 C170.88,55.7599995 170.896,55.712 170.928,55.712 C171.472003,55.712 171.835999,55.6000011 172.02,55.376 C172.204001,55.1519989 172.296,54.7120033 172.296,54.056 L172.296,50.456 C172.296,49.5599955 172.132002,48.9000021 171.804,48.476 C171.475998,48.0519979 170.960004,47.84 170.256,47.84 C169.823998,47.84 169.388002,47.939999 168.948,48.14 C168.507998,48.340001 168.120002,48.6079983 167.784,48.944 L167.784,54.056 C167.784,54.7120033 167.875999,55.1519989 168.06,55.376 C168.244001,55.6000011 168.607997,55.712 169.152,55.712 C169.216,55.712 169.248,55.7599995 169.248,55.856 C169.248,55.9520005 169.216,56 169.152,56 C168.751998,56 168.432001,55.9920001 168.192,55.976 L166.824,55.952 L165.456,55.976 C165.215999,55.9920001 164.888002,56 164.472,56 C164.44,56 164.424,55.9520005 164.424,55.856 C164.424,55.7599995 164.44,55.712 164.472,55.712 C165.016003,55.712 165.379999,55.6000011 165.564,55.376 C165.748001,55.1519989 165.84,54.7120033 165.84,54.056 L165.84,49.472 C165.84,48.9599974 165.780001,48.5880012 165.66,48.356 C165.539999,48.1239988 165.344001,48.008 165.072,48.008 C164.799999,48.008 164.392003,48.1199989 163.848,48.344 L163.824,48.344 C163.76,48.344 163.716,48.3040004 163.692,48.224 C163.668,48.1439996 163.68,48.0960001 163.728,48.08 L166.896,46.544 C166.96,46.5119998 167.008,46.496 167.04,46.496 C167.216001,46.496 167.379999,46.6719982 167.532,47.024 C167.684001,47.3760018 167.768,47.847997 167.784,48.44 C168.904006,47.1119934 170.127993,46.448 171.456,46.448 C172.320004,46.448 172.999998,46.7159973 173.496,47.252 C173.992002,47.7880027 174.24,48.5119954 174.24,49.424 L174.24,54.056 C174.24,54.7120033 174.331999,55.1519989 174.516,55.376 C174.700001,55.6000011 175.063997,55.712 175.608,55.712 C175.672,55.712 175.704,55.7599995 175.704,55.856 L175.704,55.856 Z" id="Ina-&amp;-Jonas-auf-Reis"></path>
        </g>
    </g>
</svg>