<?xml version="1.0" encoding="UTF-8" standalone="no"?>
<svg width="206px" height="62px" viewBox="0 0 206 62" version="1.1" xmlns="http://www.w3.org/2000/svg" xmlns:xlink="http://www.w3.org/1999/xlink">
    <!-- Generator: Sketch 39.1 (31720) - http://www.bohemiancoding.com/sketch -->
    <title>Group</title>
    <desc>Created with Sketch.</desc>
    <defs></defs>
    <g id="Page-1" stroke="none" stroke-width="1" fill="none" fill-rule="evenodd">
        <g id="Group" transform="translate(0.000000, -1.000000)" fill="#000000">
            <g id="logo-backpackers" transform="translate(0.000000, 1.000000)">
                <path d="M8.68592308,40.2192368 L14.2226538,40.2192368 L14.2226538,58.4007368 C14.2226538,59.9450263 12.9828462,61.1972632 11.4538846,61.1972632 C9.92573077,61.1972632 8.68592308,59.9450263 8.68592308,58.4007368 L8.68592308,40.2192368 L8.68592308,40.2192368 Z M15.6070385,58.4007368 C15.6070385,59.9450263 16.8468462,61.1972632 18.3766154,61.1972632 C19.9047692,61.1972632 21.1453846,59.9450263 21.1453846,58.4007368 L21.1453846,40.2192368 L15.6070385,40.2192368 L15.6070385,58.4007368 L15.6070385,58.4007368 Z M6.80884615,32.6666579 C6.27253846,32.3354474 5.9115,31.744 5.9115,31.0628158 C5.9115,30.0691842 6.67557692,29.2631842 7.64157692,29.1922105 C8.39676923,26.0383684 9.24,22.5133421 9.9015,19.7445526 L6.42519231,19.7445526 C5.397,19.7445526 4.56265385,20.5880789 4.56265385,21.6282105 L4.56265385,23.3813421 L0.694615385,27.3599474 C0.228576923,27.8396316 0.0387692308,28.5273421 0.190615385,29.1807895 C0.343269231,29.8350526 0.817384615,30.3653158 1.44657692,30.5831316 L4.56184615,31.6656842 L4.56184615,33.9939474 C4.56184615,34.9035526 5.19911538,35.6622368 6.04557692,35.8400789 C6.237,35.0503947 6.50030769,33.9539737 6.80884615,32.6666579 L6.80884615,32.6666579 Z M14.9140385,18.0003947 C18.3548077,18.0003947 21.1453846,15.1826579 21.1453846,11.7073947 C21.1453846,8.23213158 18.3548077,5.41439474 14.9140385,5.41439474 C11.4732692,5.41439474 8.68269231,8.23213158 8.68269231,11.7073947 C8.6835,15.1834737 11.4732692,18.0003947 14.9140385,18.0003947 L14.9140385,18.0003947 Z M21.7487308,32.9171053 C20.8618846,32.7718947 20.1834231,31.9993421 20.1834231,31.0636316 C20.1834231,30.4436316 20.4838846,29.8970526 20.9418462,29.5536053 C20.3360769,27.0271053 19.5396923,23.6937895 18.4937308,19.3138158 C17.4259615,18.8871579 16.212,18.6611842 14.9148462,18.6611842 L14.9148462,18.662 L14.9140385,18.6611842 C13.6168846,18.6611842 12.4021154,18.8871579 11.3335385,19.3146316 C10.2875769,23.6937895 9.49038462,27.0271053 8.88542308,29.5536053 C9.34338462,29.8970526 9.64384615,30.4428158 9.64384615,31.0636316 C9.64384615,31.9993421 8.96538462,32.7727105 8.07853846,32.9171053 C7.71103846,34.4467105 7.46630769,35.4631842 7.29911538,36.1533421 L7.29911538,38.8217895 L22.5289615,38.8217895 L22.5289615,36.1590526 C22.3625769,35.4697105 22.1170385,34.4507895 21.7487308,32.9171053 L21.7487308,32.9171053 Z M29.1366923,27.3599474 L25.7605385,23.8879474 L25.7605385,21.6282105 C25.7605385,20.5880789 24.927,19.7445526 23.8988077,19.7445526 L19.9273846,19.7445526 C20.5888846,22.5133421 21.4321154,26.0375526 22.1865,29.1913947 C23.1533077,29.2631842 23.9173846,30.0683684 23.9173846,31.0628158 C23.9173846,31.744 23.5563462,32.3354474 23.0200385,32.6666579 C23.3334231,33.976 23.6007692,35.0871053 23.7913846,35.8792368 L23.8996154,35.8792368 C24.9278077,35.8792368 25.7613462,35.0389737 25.7613462,33.9955789 L25.7613462,31.496 L28.3847308,30.5847632 C29.0131154,30.3653158 29.4880385,29.8366842 29.6406923,29.1824211 C29.7925385,28.5273421 29.6027308,27.8388158 29.1366923,27.3599474 L29.1366923,27.3599474 Z" id="Shape"></path>
                <path d="M53.3537308,31.0628158 C53.3537308,32.0107632 54.0475385,32.7857632 54.9473077,32.9195526 L58.2725769,46.7227105 L37.8904615,46.7227105 L41.2189615,32.9195526 C42.1195385,32.7841316 42.8125385,32.0107632 42.8125385,31.0628158 C42.8125385,30.4338421 42.5048077,29.8807368 42.0363462,29.5381053 L44.5006154,19.3154474 C45.5691923,18.8871579 46.7855769,18.6611842 48.0819231,18.6611842 C49.3831154,18.6611842 50.5978846,18.8879737 51.6656538,19.3154474 L54.1323462,29.5372895 C53.6614615,29.8791053 53.3537308,30.4338421 53.3537308,31.0628158 L53.3537308,31.0628158 Z M41.0235,10.5832368 C41.4144231,10.5065526 41.7568846,10.3254474 42.0694615,10.0831579 C41.9321538,10.602 41.8513846,11.1445 41.8513846,11.7073947 C41.8513846,15.1834737 44.6419615,18.0003947 48.0827308,18.0003947 C51.5251154,18.0003947 54.3156923,15.1826579 54.3156923,11.7073947 C54.3156923,8.23213158 51.5251154,5.41439474 48.0827308,5.41439474 C46.7500385,5.41439474 45.5142692,5.84186842 44.4998077,6.56384211 C45.1580769,5.45355263 45.8801538,4.51131579 46.9487308,4.37344737 C48.0803077,4.22660526 49.1803846,4.35957895 49.1803846,4.35957895 C49.6084615,3.16852632 48.3508846,-0.0603684211 44.4521538,1.02136842 C40.887,2.01092105 41.202,4.52926316 41.6252308,6.23997368 C42.0137308,7.80628947 41.4281538,8.78605263 40.1301923,9.07810526 C38.8330385,9.36934211 37.9138846,7.92213158 37.863,7.18057895 C36.9850385,8.15952632 38.2692692,11.1265526 41.0235,10.5832368 L41.0235,10.5832368 Z M37.7313462,33.9955789 C37.7313462,34.8962105 38.3540769,35.6442895 39.1892308,35.8311053 L39.9557308,32.6536053 C39.4323462,32.3207632 39.0818077,31.7342105 39.0818077,31.062 C39.0818077,30.0757105 39.8345769,29.2754211 40.7900769,29.1930263 L43.0661538,19.7437368 L39.5930769,19.7437368 C38.5665,19.7437368 37.7313462,20.5872632 37.7313462,21.6273947 L37.7313462,23.3805263 L33.8633077,27.3591316 C33.3980769,27.8388158 33.2074615,28.5265263 33.3601154,29.1799737 C33.5119615,29.8342368 33.9876923,30.3645 34.6176923,30.5823158 L37.7313462,31.6665 L37.7313462,33.9955789 L37.7313462,33.9955789 Z M41.8513846,48.1201579 L41.8513846,58.4007368 C41.8513846,59.9450263 43.0911923,61.1972632 44.6209615,61.1972632 C46.1523462,61.1972632 47.3913462,59.9450263 47.3913462,58.4007368 L47.3913462,48.1201579 L41.8546154,48.1201579 L41.8513846,48.1201579 L41.8513846,48.1201579 Z M62.3061923,27.3599474 L58.9300385,23.8879474 L58.9300385,21.6282105 C58.9300385,20.5880789 58.0973077,19.7445526 57.0666923,19.7445526 L53.0993077,19.7445526 L55.377,29.1938421 C56.3349231,29.2762368 57.0844615,30.0765263 57.0844615,31.0628158 C57.0844615,31.7342105 56.7339231,32.3207632 56.2113462,32.6536053 L56.9891538,35.8767895 L57.0666923,35.8767895 C58.0940769,35.8767895 58.9300385,35.0365263 58.9300385,33.9931316 L58.9300385,31.4935526 L61.5534231,30.5831316 C62.181,30.3645 62.6559231,29.8350526 62.8093846,29.1807895 C62.9620385,28.5273421 62.7730385,27.8388158 62.3061923,27.3599474 L62.3061923,27.3599474 Z M48.7789615,58.4007368 L48.7773462,58.4007368 C48.7773462,59.9450263 50.0171538,61.1972632 51.5461154,61.1972632 C53.0758846,61.1972632 54.3173077,59.9450263 54.3173077,58.4007368 L54.3173077,48.1201579 L48.7797692,48.1201579 L48.7797692,58.4007368 L48.7789615,58.4007368 Z" id="Shape"></path>
            </g>
            <path d="M80.203125,26 L80.203125,9.1953125 L83.0390625,9.1953125 L83.0390625,26 L80.203125,26 Z M97.7382812,14.4453125 C98.5820355,15.3203169 99.0039062,16.5234298 99.0039062,18.0546875 L99.0039062,26 L96.2382812,26 L96.2382812,18.828125 C96.2382812,17.8671827 95.9667996,17.1093778 95.4238281,16.5546875 C94.8808567,15.9999972 94.1289111,15.7226562 93.1679688,15.7226562 C92.1445261,15.7382813 91.308597,16.066403 90.6601562,16.7070312 C90.0117155,17.3476595 89.6406255,18.1796824 89.546875,19.203125 L89.546875,26 L86.78125,26 L86.78125,13.2265625 L89.546875,13.2265625 L89.546875,15.6757812 C90.4140668,13.9804603 91.9804574,13.1328125 94.2460938,13.1328125 C95.7304762,13.1328125 96.894527,13.5703081 97.7382812,14.4453125 L97.7382812,14.4453125 Z M109.835938,24.4414062 C108.92187,25.5585993 107.515634,26.1171875 105.617188,26.1171875 C104.718746,26.1171875 103.929691,25.9453142 103.25,25.6015625 C102.570309,25.2578108 102.046877,24.7871124 101.679688,24.1894531 C101.312498,23.5917939 101.128906,22.9140663 101.128906,22.15625 C101.128906,20.9843691 101.55273,20.056644 102.400391,19.3730469 C103.248051,18.6894497 104.433586,18.3398438 105.957031,18.3242188 L109.8125,18.3242188 L109.8125,17.9375 C109.8125,17.1249959 109.552737,16.4941429 109.033203,16.0449219 C108.513669,15.5957009 107.757817,15.3710938 106.765625,15.3710938 C105.531244,15.3710938 104.27735,15.800777 103.003906,16.6601562 L101.867188,14.7382812 C102.843755,14.1601534 103.720699,13.7480481 104.498047,13.5019531 C105.275395,13.2558581 106.230463,13.1328125 107.363281,13.1328125 C108.996102,13.1328125 110.261714,13.5292929 111.160156,14.3222656 C112.058598,15.1152383 112.515625,16.2148367 112.53125,17.6210938 L112.554688,26 L109.835938,26 L109.835938,24.4414062 Z M108.675781,23.2519531 C109.355472,22.7949196 109.734375,22.2148473 109.8125,21.5117188 L109.8125,20.3398438 L106.355469,20.3398438 C105.441402,20.3398438 104.77344,20.4707018 104.351562,20.7324219 C103.929685,20.9941419 103.71875,21.4296845 103.71875,22.0390625 C103.71875,22.6171904 103.939451,23.0781233 104.380859,23.421875 C104.822268,23.7656267 105.425777,23.9375 106.191406,23.9375 C107.167974,23.9375 107.99609,23.7089867 108.675781,23.2519531 L108.675781,23.2519531 Z M131.101562,23.890625 C129.531242,25.3750074 127.843759,26.1171875 126.039062,26.1171875 C125.04687,26.1171875 124.152348,25.9140645 123.355469,25.5078125 C122.55859,25.1015605 121.927737,24.5429723 121.462891,23.8320312 C120.998045,23.1210902 120.765625,22.3164107 120.765625,21.4179688 C120.765625,20.3320258 121.085934,19.4355504 121.726562,18.7285156 C122.367191,18.0214808 123.253901,17.3671905 124.386719,16.765625 C123.824216,16.0156213 123.416017,15.3281281 123.162109,14.703125 C122.908202,14.0781219 122.78125,13.468753 122.78125,12.875 C122.78125,11.7578069 123.185543,10.8457067 123.994141,10.1386719 C124.802738,9.43163709 125.855462,9.078125 127.152344,9.078125 C128.40235,9.078125 129.421871,9.40624672 130.210938,10.0625 C131.000004,10.7187533 131.394531,11.5664011 131.394531,12.6054688 C131.394531,13.3242223 131.210939,13.9609347 130.84375,14.515625 C130.476561,15.0703153 130.007815,15.5429668 129.4375,15.9335938 C128.867185,16.3242207 128.16016,16.7421853 127.316406,17.1875 C128.113285,18.1015671 129.289055,19.3203049 130.84375,20.84375 C131.421878,19.9765582 131.925779,18.9687557 132.355469,17.8203125 L134.160156,19.15625 C133.628904,20.4218813 133.042972,21.4882769 132.402344,22.3554688 L135.132812,25.015625 L133.726562,26.4570312 L131.101562,23.890625 Z M126.214844,15.828125 C127.191411,15.3124974 127.935544,14.8183617 128.447266,14.3457031 C128.958987,13.8730445 129.214844,13.3007846 129.214844,12.6289062 C129.214844,12.0664034 129.029299,11.6230485 128.658203,11.2988281 C128.287108,10.9746078 127.792972,10.8125 127.175781,10.8125 C126.519528,10.8125 125.98633,11.0039043 125.576172,11.3867188 C125.166014,11.7695332 124.960938,12.2578095 124.960938,12.8515625 C124.96875,13.7031293 125.386715,14.6953068 126.214844,15.828125 L126.214844,15.828125 Z M129.589844,22.4023438 C127.683584,20.4960842 126.324223,19.0781296 125.511719,18.1484375 C124.730465,18.5937522 124.123049,19.052732 123.689453,19.5253906 C123.255857,19.9980492 123.039062,20.5546843 123.039062,21.1953125 C123.039062,22.0234416 123.335935,22.7031223 123.929688,23.234375 C124.52344,23.7656277 125.257808,24.03125 126.132812,24.03125 C127.320318,24.03125 128.472651,23.4882867 129.589844,22.4023438 L129.589844,22.4023438 Z M149.220703,24.7285156 C148.294917,25.6543015 147.015633,26.1171875 145.382812,26.1171875 C144.39062,26.1171875 143.47852,25.9101583 142.646484,25.4960938 C141.814449,25.0820292 141.078128,24.4804727 140.4375,23.6914062 L141.785156,21.5351562 C142.332034,22.1289092 142.916013,22.5859359 143.537109,22.90625 C144.158206,23.2265641 144.765622,23.3867188 145.359375,23.3867188 C146.125004,23.3867188 146.716795,23.1582054 147.134766,22.7011719 C147.552736,22.2441383 147.761719,21.5820356 147.761719,20.7148438 L147.761719,11.7382812 L141.949219,11.7382812 L141.949219,9.1953125 L150.609375,9.1953125 L150.609375,20.8203125 C150.609375,22.5000084 150.146489,23.8027297 149.220703,24.7285156 L149.220703,24.7285156 Z M162.917969,13.953125 C163.925786,14.5000027 164.708982,15.2597608 165.267578,16.2324219 C165.826175,17.205083 166.105469,18.3320248 166.105469,19.6132812 C166.105469,20.8789126 165.826175,22.0039013 165.267578,22.9882812 C164.708982,23.9726612 163.925786,24.7363254 162.917969,25.2792969 C161.910151,25.8222683 160.757819,26.09375 159.460938,26.09375 C158.148431,26.09375 156.988286,25.8222683 155.980469,25.2792969 C154.972651,24.7363254 154.189456,23.9726612 153.630859,22.9882812 C153.072263,22.0039013 152.792969,20.8789126 152.792969,19.6132812 C152.792969,18.3320248 153.072263,17.205083 153.630859,16.2324219 C154.189456,15.2597608 154.972651,14.5000027 155.980469,13.953125 C156.988286,13.4062473 158.148431,13.1328125 159.460938,13.1328125 C160.757819,13.1328125 161.910151,13.4062473 162.917969,13.953125 L162.917969,13.953125 Z M156.642578,16.6660156 C155.912106,17.4355507 155.546875,18.4257752 155.546875,19.6367188 C155.546875,20.8710999 155.912106,21.873043 156.642578,22.6425781 C157.373051,23.4121132 158.312494,23.796875 159.460938,23.796875 C160.609381,23.796875 161.544918,23.4121132 162.267578,22.6425781 C162.990238,21.873043 163.351562,20.8710999 163.351562,19.6367188 C163.351562,18.4179627 162.986332,17.4257851 162.255859,16.6601562 C161.525387,15.8945274 160.593756,15.5117188 159.460938,15.5117188 C158.312494,15.5117188 157.373051,15.8964805 156.642578,16.6660156 L156.642578,16.6660156 Z M179.445312,14.4453125 C180.289067,15.3203169 180.710938,16.5234298 180.710938,18.0546875 L180.710938,26 L177.945312,26 L177.945312,18.828125 C177.945312,17.8671827 177.673831,17.1093778 177.130859,16.5546875 C176.587888,15.9999972 175.835942,15.7226562 174.875,15.7226562 C173.851557,15.7382813 173.015628,16.066403 172.367188,16.7070312 C171.718747,17.3476595 171.347657,18.1796824 171.253906,19.203125 L171.253906,26 L168.488281,26 L168.488281,13.2265625 L171.253906,13.2265625 L171.253906,15.6757812 C172.121098,13.9804603 173.687489,13.1328125 175.953125,13.1328125 C177.437507,13.1328125 178.601558,13.5703081 179.445312,14.4453125 L179.445312,14.4453125 Z M191.542969,24.4414062 C190.628902,25.5585993 189.222666,26.1171875 187.324219,26.1171875 C186.425777,26.1171875 185.636722,25.9453142 184.957031,25.6015625 C184.27734,25.2578108 183.753908,24.7871124 183.386719,24.1894531 C183.019529,23.5917939 182.835938,22.9140663 182.835938,22.15625 C182.835938,20.9843691 183.259761,20.056644 184.107422,19.3730469 C184.955082,18.6894497 186.140617,18.3398438 187.664062,18.3242188 L191.519531,18.3242188 L191.519531,17.9375 C191.519531,17.1249959 191.259768,16.4941429 190.740234,16.0449219 C190.220701,15.5957009 189.464849,15.3710938 188.472656,15.3710938 C187.238275,15.3710938 185.984381,15.800777 184.710938,16.6601562 L183.574219,14.7382812 C184.550786,14.1601534 185.42773,13.7480481 186.205078,13.5019531 C186.982426,13.2558581 187.937494,13.1328125 189.070312,13.1328125 C190.703133,13.1328125 191.968746,13.5292929 192.867188,14.3222656 C193.765629,15.1152383 194.222656,16.2148367 194.238281,17.6210938 L194.261719,26 L191.542969,26 L191.542969,24.4414062 Z M190.382812,23.2519531 C191.062503,22.7949196 191.441406,22.2148473 191.519531,21.5117188 L191.519531,20.3398438 L188.0625,20.3398438 C187.148433,20.3398438 186.480471,20.4707018 186.058594,20.7324219 C185.636717,20.9941419 185.425781,21.4296845 185.425781,22.0390625 C185.425781,22.6171904 185.646482,23.0781233 186.087891,23.421875 C186.529299,23.7656267 187.132809,23.9375 187.898438,23.9375 C188.875005,23.9375 189.703122,23.7089867 190.382812,23.2519531 L190.382812,23.2519531 Z M203.681641,13.4609375 C204.474613,13.6953137 205.160153,14.0117168 205.738281,14.4101562 L204.730469,16.4492188 C204.167966,16.0976545 203.554691,15.8222666 202.890625,15.6230469 C202.226559,15.4238271 201.613284,15.3242188 201.050781,15.3242188 C200.472653,15.3242188 200.01758,15.4277333 199.685547,15.6347656 C199.353514,15.8417979 199.1875,16.1601541 199.1875,16.5898438 C199.1875,17.0195334 199.382811,17.3476551 199.773438,17.5742188 C200.164064,17.8007824 200.816402,18.0585923 201.730469,18.3476562 C202.597661,18.60547 203.31445,18.8613269 203.880859,19.1152344 C204.447268,19.3691419 204.933592,19.7519506 205.339844,20.2636719 C205.746096,20.7753932 205.949219,21.4492146 205.949219,22.2851562 C205.949219,23.5351625 205.480473,24.4824187 204.542969,25.1269531 C203.605464,25.7714876 202.441413,26.09375 201.050781,26.09375 C200.089839,26.09375 199.150395,25.9375016 198.232422,25.625 C197.314449,25.3124984 196.542972,24.878909 195.917969,24.3242188 L196.902344,22.3554688 C197.449221,22.8320336 198.117184,23.2148423 198.90625,23.5039062 C199.695316,23.7929702 200.453121,23.9375 201.179688,23.9375 C201.804691,23.9375 202.308592,23.826173 202.691406,23.6035156 C203.074221,23.3808583 203.265625,23.0351586 203.265625,22.5664062 C203.265625,22.214842 203.148439,21.9238293 202.914062,21.6933594 C202.679686,21.4628895 202.394533,21.2792976 202.058594,21.1425781 C201.722655,21.0058587 201.234378,20.8398447 200.59375,20.6445312 C199.742183,20.3867175 199.050784,20.1347669 198.519531,19.8886719 C197.988279,19.6425769 197.529299,19.2753931 197.142578,18.7871094 C196.755857,18.2988257 196.5625,17.6484416 196.5625,16.8359375 C196.5625,15.6171814 197.011714,14.6914094 197.910156,14.0585938 C198.808598,13.4257781 199.929681,13.109375 201.273438,13.109375 C202.085942,13.109375 202.888668,13.2265613 203.681641,13.4609375 L203.681641,13.4609375 Z M87.6914062,56.4414062 C86.7773392,57.5585993 85.3711032,58.1171875 83.4726562,58.1171875 C82.5742143,58.1171875 81.7851596,57.9453142 81.1054688,57.6015625 C80.4257779,57.2578108 79.9023456,56.7871124 79.5351562,56.1894531 C79.1679669,55.5917939 78.984375,54.9140663 78.984375,54.15625 C78.984375,52.9843691 79.4081989,52.056644 80.2558594,51.3730469 C81.1035199,50.6894497 82.2890549,50.3398438 83.8125,50.3242188 L87.6679688,50.3242188 L87.6679688,49.9375 C87.6679688,49.1249959 87.4082057,48.4941429 86.8886719,48.0449219 C86.369138,47.5957009 85.6132862,47.3710938 84.6210938,47.3710938 C83.3867126,47.3710938 82.1328189,47.800777 80.859375,48.6601562 L79.7226562,46.7382812 C80.6992236,46.1601534 81.576168,45.7480481 82.3535156,45.5019531 C83.1308633,45.2558581 84.0859318,45.1328125 85.21875,45.1328125 C86.8515707,45.1328125 88.117183,45.5292929 89.015625,46.3222656 C89.914067,47.1152383 90.3710937,48.2148367 90.3867188,49.6210938 L90.4101562,58 L87.6914062,58 L87.6914062,56.4414062 Z M86.53125,55.2519531 C87.2109409,54.7949196 87.5898434,54.2148473 87.6679688,53.5117188 L87.6679688,52.3398438 L84.2109375,52.3398438 C83.2968704,52.3398438 82.6289084,52.4707018 82.2070312,52.7324219 C81.7851541,52.9941419 81.5742188,53.4296845 81.5742188,54.0390625 C81.5742188,54.6171904 81.7949197,55.0781233 82.2363281,55.421875 C82.6777366,55.7656267 83.2812462,55.9375 84.046875,55.9375 C85.0234424,55.9375 85.8515591,55.7089867 86.53125,55.2519531 L86.53125,55.2519531 Z M105.191406,58 L102.4375,58 L102.4375,55.5039062 C101.609371,57.1992272 100.089855,58.0624998 97.8789062,58.09375 C96.425774,58.09375 95.2812542,57.6543013 94.4453125,56.7753906 C93.6093708,55.89648 93.1914062,54.6953201 93.1914062,53.171875 L93.1914062,45.2265625 L95.9570312,45.2265625 L95.9570312,52.4101562 C95.9570312,53.3710986 96.2207005,54.1269504 96.7480469,54.6777344 C97.2753933,55.2285184 98.0039016,55.5039062 98.9335938,55.5039062 C100.003912,55.4882812 100.855466,55.1074256 101.488281,54.3613281 C102.121097,53.6152306 102.4375,52.6679745 102.4375,51.5195312 L102.4375,45.2265625 L105.191406,45.2265625 L105.191406,58 Z M112.53125,42.90625 C112.203123,43.1953139 112.039062,43.6249971 112.039062,44.1953125 L112.039062,45.7070312 L115.367188,45.7070312 L115.367188,47.78125 L112.039062,47.78125 L112.039062,58 L109.296875,58 L109.296875,47.78125 L107.621094,47.78125 L107.621094,45.7070312 L109.296875,45.7070312 L109.296875,44.4648438 C109.296875,43.5195265 109.501951,42.7148471 109.912109,42.0507812 C110.322268,41.3867154 110.863278,40.8906266 111.535156,40.5625 C112.207035,40.2343734 112.925777,40.0703125 113.691406,40.0703125 C114.808599,40.0703125 115.769527,40.3671845 116.574219,40.9609375 L115.519531,43.0703125 C114.972654,42.671873 114.386722,42.4726562 113.761719,42.4726562 C113.269529,42.4726562 112.859377,42.6171861 112.53125,42.90625 L112.53125,42.90625 Z M129.941406,52.9140625 C129.785155,52.9296876 129.527346,52.9375 129.167969,52.9375 L125.183594,52.9375 L125.183594,58 L122.347656,58 L122.347656,41.1953125 L129.167969,41.1953125 C131.308604,41.1953125 132.97265,41.6953075 134.160156,42.6953125 C135.347662,43.6953175 135.941406,45.1093659 135.941406,46.9375 C135.941406,48.2812567 135.640628,49.416011 135.039062,50.3417969 C134.437497,51.2675828 133.578131,51.9492166 132.460938,52.3867188 L136.222656,58 L133.011719,58 L129.941406,52.9140625 Z M132.191406,49.5390625 C132.894535,48.9687471 133.246094,48.1250056 133.246094,47.0078125 C133.246094,45.9218696 132.894535,45.1054715 132.191406,44.5585938 C131.488278,44.011716 130.480475,43.7382812 129.167969,43.7382812 L125.183594,43.7382812 L125.183594,50.3945312 L129.167969,50.3945312 C130.480475,50.3945312 131.488278,50.1093779 132.191406,49.5390625 L132.191406,49.5390625 Z M148.8125,46.8378906 C149.812505,47.9746151 150.3125,49.5742084 150.3125,51.6367188 C150.3125,51.8476573 150.296875,52.1914039 150.265625,52.6679688 L140.609375,52.6679688 C140.835939,53.6601612 141.300778,54.4414034 142.003906,55.0117188 C142.707035,55.5820341 143.562495,55.8671875 144.570312,55.8671875 C145.257816,55.8671875 145.914059,55.7382825 146.539062,55.4804688 C147.164066,55.222655 147.707029,54.8554711 148.167969,54.3789062 L149.632812,55.9375 C148.992184,56.6250034 148.224614,57.1562481 147.330078,57.53125 C146.435542,57.9062519 145.445318,58.09375 144.359375,58.09375 C143.062494,58.09375 141.92188,57.8222683 140.9375,57.2792969 C139.95312,56.7363254 139.189456,55.9765674 138.646484,55 C138.103513,54.0234326 137.832031,52.9023501 137.832031,51.6367188 C137.832031,50.3710874 138.103513,49.2480518 138.646484,48.2675781 C139.189456,47.2871045 139.95312,46.519534 140.9375,45.9648438 C141.92188,45.4101535 143.039056,45.1328125 144.289062,45.1328125 C146.304698,45.1328125 147.812495,45.7011662 148.8125,46.8378906 L148.8125,46.8378906 Z M146.832031,48.2324219 C146.191403,47.6425752 145.351568,47.3476562 144.3125,47.3476562 C143.304682,47.3476562 142.468753,47.6425752 141.804688,48.2324219 C141.140622,48.8222686 140.726563,49.6289011 140.5625,50.6523438 L147.863281,50.6523438 C147.816406,49.6289011 147.472659,48.8222686 146.832031,48.2324219 L146.832031,48.2324219 Z M152.636719,58 L152.636719,45.2265625 L155.378906,45.2265625 L155.378906,58 L152.636719,58 Z M155.15625,40.375 C155.460939,40.6875016 155.613281,41.0898413 155.613281,41.5820312 C155.613281,42.0585961 155.460939,42.4531234 155.15625,42.765625 C154.851561,43.0781266 154.464846,43.234375 153.996094,43.234375 C153.535154,43.234375 153.152345,43.0800797 152.847656,42.7714844 C152.542967,42.4628891 152.390625,42.0664087 152.390625,41.5820312 C152.390625,41.0898413 152.542967,40.6875016 152.847656,40.375 C153.152345,40.0624984 153.535154,39.90625 153.996094,39.90625 C154.464846,39.90625 154.851561,40.0624984 155.15625,40.375 L155.15625,40.375 Z M165.173828,45.4609375 C165.966801,45.6953137 166.652341,46.0117168 167.230469,46.4101562 L166.222656,48.4492188 C165.660153,48.0976545 165.046878,47.8222666 164.382812,47.6230469 C163.718747,47.4238271 163.105472,47.3242188 162.542969,47.3242188 C161.964841,47.3242188 161.509767,47.4277333 161.177734,47.6347656 C160.845701,47.8417979 160.679688,48.1601541 160.679688,48.5898438 C160.679688,49.0195334 160.874998,49.3476551 161.265625,49.5742188 C161.656252,49.8007824 162.308589,50.0585923 163.222656,50.3476562 C164.089848,50.60547 164.806638,50.8613269 165.373047,51.1152344 C165.939456,51.3691419 166.425779,51.7519506 166.832031,52.2636719 C167.238283,52.7753932 167.441406,53.4492146 167.441406,54.2851562 C167.441406,55.5351625 166.972661,56.4824187 166.035156,57.1269531 C165.097652,57.7714876 163.933601,58.09375 162.542969,58.09375 C161.582026,58.09375 160.642583,57.9375016 159.724609,57.625 C158.806636,57.3124984 158.035159,56.878909 157.410156,56.3242188 L158.394531,54.3554688 C158.941409,54.8320336 159.609371,55.2148423 160.398438,55.5039062 C161.187504,55.7929702 161.945309,55.9375 162.671875,55.9375 C163.296878,55.9375 163.800779,55.826173 164.183594,55.6035156 C164.566408,55.3808583 164.757812,55.0351586 164.757812,54.5664062 C164.757812,54.214842 164.640626,53.9238293 164.40625,53.6933594 C164.171874,53.4628895 163.88672,53.2792976 163.550781,53.1425781 C163.214842,53.0058587 162.726566,52.8398447 162.085938,52.6445312 C161.234371,52.3867175 160.542971,52.1347669 160.011719,51.8886719 C159.480466,51.6425769 159.021486,51.2753931 158.634766,50.7871094 C158.248045,50.2988257 158.054688,49.6484416 158.054688,48.8359375 C158.054688,47.6171814 158.503902,46.6914094 159.402344,46.0585938 C160.300786,45.4257781 161.421868,45.109375 162.765625,45.109375 C163.578129,45.109375 164.380855,45.2265613 165.173828,45.4609375 L165.173828,45.4609375 Z M179.503906,46.8378906 C180.503911,47.9746151 181.003906,49.5742084 181.003906,51.6367188 C181.003906,51.8476573 180.988281,52.1914039 180.957031,52.6679688 L171.300781,52.6679688 C171.527345,53.6601612 171.992184,54.4414034 172.695312,55.0117188 C173.398441,55.5820341 174.253901,55.8671875 175.261719,55.8671875 C175.949222,55.8671875 176.605466,55.7382825 177.230469,55.4804688 C177.855472,55.222655 178.398435,54.8554711 178.859375,54.3789062 L180.324219,55.9375 C179.683591,56.6250034 178.91602,57.1562481 178.021484,57.53125 C177.126949,57.9062519 176.136724,58.09375 175.050781,58.09375 C173.7539,58.09375 172.613286,57.8222683 171.628906,57.2792969 C170.644526,56.7363254 169.880862,55.9765674 169.337891,55 C168.794919,54.0234326 168.523438,52.9023501 168.523438,51.6367188 C168.523438,50.3710874 168.794919,49.2480518 169.337891,48.2675781 C169.880862,47.2871045 170.644526,46.519534 171.628906,45.9648438 C172.613286,45.4101535 173.730462,45.1328125 174.980469,45.1328125 C176.996104,45.1328125 178.503901,45.7011662 179.503906,46.8378906 L179.503906,46.8378906 Z M177.523438,48.2324219 C176.882809,47.6425752 176.042974,47.3476562 175.003906,47.3476562 C173.996089,47.3476562 173.16016,47.6425752 172.496094,48.2324219 C171.832028,48.8222686 171.41797,49.6289011 171.253906,50.6523438 L178.554688,50.6523438 C178.507812,49.6289011 178.164066,48.8222686 177.523438,48.2324219 L177.523438,48.2324219 Z M194.285156,46.4453125 C195.12891,47.3203169 195.550781,48.5234298 195.550781,50.0546875 L195.550781,58 L192.785156,58 L192.785156,50.828125 C192.785156,49.8671827 192.513675,49.1093778 191.970703,48.5546875 C191.427732,47.9999972 190.675786,47.7226562 189.714844,47.7226562 C188.691401,47.7382813 187.855472,48.066403 187.207031,48.7070312 C186.558591,49.3476595 186.1875,50.1796824 186.09375,51.203125 L186.09375,58 L183.328125,58 L183.328125,45.2265625 L186.09375,45.2265625 L186.09375,47.6757812 C186.960942,45.9804603 188.527332,45.1328125 190.792969,45.1328125 C192.277351,45.1328125 193.441402,45.5703081 194.285156,46.4453125 L194.285156,46.4453125 Z" id="Ina-&amp;-Jonas-auf-Reis"></path>
        </g>
    </g>
</svg>