<?xml version="1.0" encoding="UTF-8" standalone="no"?>
<svg width="78px" height="74px" viewBox="0 0 78 74" version="1.1" xmlns="http://www.w3.org/2000/svg" xmlns:xlink="http://www.w3.org/1999/xlink">
    <!-- Generator: Sketch 39.1 (31720) - http://www.bohemiancoding.com/sketch -->
    <title>logo-backpackers</title>
    <desc>Created with Sketch.</desc>
    <defs></defs>
    <g id="Page-1" stroke="none" stroke-width="1" fill="none" fill-rule="evenodd">
        <g id="logo-backpackers" transform="translate(0.000000, -1.000000)" fill="#FFFFFF">
            <path d="M10.754,49.301 L17.609,49.301 L17.609,71.588 C17.609,73.481 16.074,75.016 14.181,75.016 C12.289,75.016 10.754,73.481 10.754,71.588 L10.754,49.301 L10.754,49.301 Z M19.323,71.588 C19.323,73.481 20.858,75.016 22.752,75.016 C24.644,75.016 26.18,73.481 26.18,71.588 L26.18,49.301 L19.323,49.301 L19.323,71.588 L19.323,71.588 Z M8.43,40.043 C7.766,39.637 7.319,38.912 7.319,38.077 C7.319,36.859 8.265,35.871 9.461,35.784 C10.396,31.918 11.44,27.597 12.259,24.203 L7.955,24.203 C6.682,24.203 5.649,25.237 5.649,26.512 L5.649,28.661 L0.86,33.538 C0.283,34.126 0.048,34.969 0.236,35.77 C0.425,36.572 1.012,37.222 1.791,37.489 L5.648,38.816 L5.648,41.67 C5.648,42.785 6.437,43.715 7.485,43.933 C7.722,42.965 8.048,41.621 8.43,40.043 L8.43,40.043 Z M18.465,22.065 C22.725,22.065 26.18,18.611 26.18,14.351 C26.18,10.091 22.725,6.637 18.465,6.637 C14.205,6.637 10.75,10.091 10.75,14.351 C10.751,18.612 14.205,22.065 18.465,22.065 L18.465,22.065 Z M26.927,40.35 C25.829,40.172 24.989,39.225 24.989,38.078 C24.989,37.318 25.361,36.648 25.928,36.227 C25.178,33.13 24.192,29.044 22.897,23.675 C21.575,23.152 20.072,22.875 18.466,22.875 L18.466,22.876 L18.465,22.875 C16.859,22.875 15.355,23.152 14.032,23.676 C12.737,29.044 11.75,33.13 11.001,36.227 C11.568,36.648 11.94,37.317 11.94,38.078 C11.94,39.225 11.1,40.173 10.002,40.35 C9.547,42.225 9.244,43.471 9.037,44.317 L9.037,47.588 L27.893,47.588 L27.893,44.324 C27.687,43.479 27.383,42.23 26.927,40.35 L26.927,40.35 Z M36.074,33.538 L31.894,29.282 L31.894,26.512 C31.894,25.237 30.862,24.203 29.589,24.203 L24.672,24.203 C25.491,27.597 26.535,31.917 27.469,35.783 C28.666,35.871 29.612,36.858 29.612,38.077 C29.612,38.912 29.165,39.637 28.501,40.043 C28.889,41.648 29.22,43.01 29.456,43.981 L29.59,43.981 C30.863,43.981 31.895,42.951 31.895,41.672 L31.895,38.608 L35.143,37.491 C35.921,37.222 36.509,36.574 36.698,35.772 C36.886,34.969 36.651,34.125 36.074,33.538 L36.074,33.538 Z" id="Shape"></path>
            <path d="M66.057,38.077 C66.057,39.239 66.916,40.189 68.03,40.353 L72.147,57.273 L46.912,57.273 L51.033,40.353 C52.148,40.187 53.006,39.239 53.006,38.077 C53.006,37.306 52.625,36.628 52.045,36.208 L55.096,23.677 C56.419,23.152 57.925,22.875 59.53,22.875 C61.141,22.875 62.645,23.153 63.967,23.677 L67.021,36.207 C66.438,36.626 66.057,37.306 66.057,38.077 L66.057,38.077 Z M50.791,12.973 C51.275,12.879 51.699,12.657 52.086,12.36 C51.916,12.996 51.816,13.661 51.816,14.351 C51.816,18.612 55.271,22.065 59.531,22.065 C63.793,22.065 67.248,18.611 67.248,14.351 C67.248,10.091 63.793,6.637 59.531,6.637 C57.881,6.637 56.351,7.161 55.095,8.046 C55.91,6.685 56.804,5.53 58.127,5.361 C59.528,5.181 60.89,5.344 60.89,5.344 C61.42,3.884 59.863,-0.074 55.036,1.252 C50.622,2.465 51.012,5.552 51.536,7.649 C52.017,9.569 51.292,10.77 49.685,11.128 C48.079,11.485 46.941,9.711 46.878,8.802 C45.791,10.002 47.381,13.639 50.791,12.973 L50.791,12.973 Z M46.715,41.672 C46.715,42.776 47.486,43.693 48.52,43.922 L49.469,40.027 C48.821,39.619 48.387,38.9 48.387,38.076 C48.387,36.867 49.319,35.886 50.502,35.785 L53.32,24.202 L49.02,24.202 C47.749,24.202 46.715,25.236 46.715,26.511 L46.715,28.66 L41.926,33.537 C41.35,34.125 41.114,34.968 41.303,35.769 C41.491,36.571 42.08,37.221 42.86,37.488 L46.715,38.817 L46.715,41.672 L46.715,41.672 Z M51.816,58.986 L51.816,71.588 C51.816,73.481 53.351,75.016 55.245,75.016 C57.141,75.016 58.675,73.481 58.675,71.588 L58.675,58.986 L51.82,58.986 L51.816,58.986 L51.816,58.986 Z M77.141,33.538 L72.961,29.282 L72.961,26.512 C72.961,25.237 71.93,24.203 70.654,24.203 L65.742,24.203 L68.562,35.786 C69.748,35.887 70.676,36.868 70.676,38.077 C70.676,38.9 70.242,39.619 69.595,40.027 L70.558,43.978 L70.654,43.978 C71.926,43.978 72.961,42.948 72.961,41.669 L72.961,38.605 L76.209,37.489 C76.986,37.221 77.574,36.572 77.764,35.77 C77.953,34.969 77.719,34.125 77.141,33.538 L77.141,33.538 Z M60.393,71.588 L60.391,71.588 C60.391,73.481 61.926,75.016 63.819,75.016 C65.713,75.016 67.25,73.481 67.25,71.588 L67.25,58.986 L60.394,58.986 L60.394,71.588 L60.393,71.588 Z" id="Shape"></path>
        </g>
    </g>
</svg>