<?xml version="1.0" encoding="UTF-8" standalone="no"?>
<svg width="187px" height="63px" viewBox="0 0 187 63" version="1.1" xmlns="http://www.w3.org/2000/svg" xmlns:xlink="http://www.w3.org/1999/xlink">
    <!-- Generator: Sketch 39.1 (31720) - http://www.bohemiancoding.com/sketch -->
    <title>Group</title>
    <desc>Created with Sketch.</desc>
    <defs></defs>
    <g id="Page-1" stroke="none" stroke-width="1" fill="none" fill-rule="evenodd">
        <g id="Group" fill="#000000">
            <g id="logo-backpackers">
                <path d="M8.68592308,40.2192368 L14.2226538,40.2192368 L14.2226538,58.4007368 C14.2226538,59.9450263 12.9828462,61.1972632 11.4538846,61.1972632 C9.92573077,61.1972632 8.68592308,59.9450263 8.68592308,58.4007368 L8.68592308,40.2192368 L8.68592308,40.2192368 Z M15.6070385,58.4007368 C15.6070385,59.9450263 16.8468462,61.1972632 18.3766154,61.1972632 C19.9047692,61.1972632 21.1453846,59.9450263 21.1453846,58.4007368 L21.1453846,40.2192368 L15.6070385,40.2192368 L15.6070385,58.4007368 L15.6070385,58.4007368 Z M6.80884615,32.6666579 C6.27253846,32.3354474 5.9115,31.744 5.9115,31.0628158 C5.9115,30.0691842 6.67557692,29.2631842 7.64157692,29.1922105 C8.39676923,26.0383684 9.24,22.5133421 9.9015,19.7445526 L6.42519231,19.7445526 C5.397,19.7445526 4.56265385,20.5880789 4.56265385,21.6282105 L4.56265385,23.3813421 L0.694615385,27.3599474 C0.228576923,27.8396316 0.0387692308,28.5273421 0.190615385,29.1807895 C0.343269231,29.8350526 0.817384615,30.3653158 1.44657692,30.5831316 L4.56184615,31.6656842 L4.56184615,33.9939474 C4.56184615,34.9035526 5.19911538,35.6622368 6.04557692,35.8400789 C6.237,35.0503947 6.50030769,33.9539737 6.80884615,32.6666579 L6.80884615,32.6666579 Z M14.9140385,18.0003947 C18.3548077,18.0003947 21.1453846,15.1826579 21.1453846,11.7073947 C21.1453846,8.23213158 18.3548077,5.41439474 14.9140385,5.41439474 C11.4732692,5.41439474 8.68269231,8.23213158 8.68269231,11.7073947 C8.6835,15.1834737 11.4732692,18.0003947 14.9140385,18.0003947 L14.9140385,18.0003947 Z M21.7487308,32.9171053 C20.8618846,32.7718947 20.1834231,31.9993421 20.1834231,31.0636316 C20.1834231,30.4436316 20.4838846,29.8970526 20.9418462,29.5536053 C20.3360769,27.0271053 19.5396923,23.6937895 18.4937308,19.3138158 C17.4259615,18.8871579 16.212,18.6611842 14.9148462,18.6611842 L14.9148462,18.662 L14.9140385,18.6611842 C13.6168846,18.6611842 12.4021154,18.8871579 11.3335385,19.3146316 C10.2875769,23.6937895 9.49038462,27.0271053 8.88542308,29.5536053 C9.34338462,29.8970526 9.64384615,30.4428158 9.64384615,31.0636316 C9.64384615,31.9993421 8.96538462,32.7727105 8.07853846,32.9171053 C7.71103846,34.4467105 7.46630769,35.4631842 7.29911538,36.1533421 L7.29911538,38.8217895 L22.5289615,38.8217895 L22.5289615,36.1590526 C22.3625769,35.4697105 22.1170385,34.4507895 21.7487308,32.9171053 L21.7487308,32.9171053 Z M29.1366923,27.3599474 L25.7605385,23.8879474 L25.7605385,21.6282105 C25.7605385,20.5880789 24.927,19.7445526 23.8988077,19.7445526 L19.9273846,19.7445526 C20.5888846,22.5133421 21.4321154,26.0375526 22.1865,29.1913947 C23.1533077,29.2631842 23.9173846,30.0683684 23.9173846,31.0628158 C23.9173846,31.744 23.5563462,32.3354474 23.0200385,32.6666579 C23.3334231,33.976 23.6007692,35.0871053 23.7913846,35.8792368 L23.8996154,35.8792368 C24.9278077,35.8792368 25.7613462,35.0389737 25.7613462,33.9955789 L25.7613462,31.496 L28.3847308,30.5847632 C29.0131154,30.3653158 29.4880385,29.8366842 29.6406923,29.1824211 C29.7925385,28.5273421 29.6027308,27.8388158 29.1366923,27.3599474 L29.1366923,27.3599474 Z" id="Shape"></path>
                <path d="M53.3537308,31.0628158 C53.3537308,32.0107632 54.0475385,32.7857632 54.9473077,32.9195526 L58.2725769,46.7227105 L37.8904615,46.7227105 L41.2189615,32.9195526 C42.1195385,32.7841316 42.8125385,32.0107632 42.8125385,31.0628158 C42.8125385,30.4338421 42.5048077,29.8807368 42.0363462,29.5381053 L44.5006154,19.3154474 C45.5691923,18.8871579 46.7855769,18.6611842 48.0819231,18.6611842 C49.3831154,18.6611842 50.5978846,18.8879737 51.6656538,19.3154474 L54.1323462,29.5372895 C53.6614615,29.8791053 53.3537308,30.4338421 53.3537308,31.0628158 L53.3537308,31.0628158 Z M41.0235,10.5832368 C41.4144231,10.5065526 41.7568846,10.3254474 42.0694615,10.0831579 C41.9321538,10.602 41.8513846,11.1445 41.8513846,11.7073947 C41.8513846,15.1834737 44.6419615,18.0003947 48.0827308,18.0003947 C51.5251154,18.0003947 54.3156923,15.1826579 54.3156923,11.7073947 C54.3156923,8.23213158 51.5251154,5.41439474 48.0827308,5.41439474 C46.7500385,5.41439474 45.5142692,5.84186842 44.4998077,6.56384211 C45.1580769,5.45355263 45.8801538,4.51131579 46.9487308,4.37344737 C48.0803077,4.22660526 49.1803846,4.35957895 49.1803846,4.35957895 C49.6084615,3.16852632 48.3508846,-0.0603684211 44.4521538,1.02136842 C40.887,2.01092105 41.202,4.52926316 41.6252308,6.23997368 C42.0137308,7.80628947 41.4281538,8.78605263 40.1301923,9.07810526 C38.8330385,9.36934211 37.9138846,7.92213158 37.863,7.18057895 C36.9850385,8.15952632 38.2692692,11.1265526 41.0235,10.5832368 L41.0235,10.5832368 Z M37.7313462,33.9955789 C37.7313462,34.8962105 38.3540769,35.6442895 39.1892308,35.8311053 L39.9557308,32.6536053 C39.4323462,32.3207632 39.0818077,31.7342105 39.0818077,31.062 C39.0818077,30.0757105 39.8345769,29.2754211 40.7900769,29.1930263 L43.0661538,19.7437368 L39.5930769,19.7437368 C38.5665,19.7437368 37.7313462,20.5872632 37.7313462,21.6273947 L37.7313462,23.3805263 L33.8633077,27.3591316 C33.3980769,27.8388158 33.2074615,28.5265263 33.3601154,29.1799737 C33.5119615,29.8342368 33.9876923,30.3645 34.6176923,30.5823158 L37.7313462,31.6665 L37.7313462,33.9955789 L37.7313462,33.9955789 Z M41.8513846,48.1201579 L41.8513846,58.4007368 C41.8513846,59.9450263 43.0911923,61.1972632 44.6209615,61.1972632 C46.1523462,61.1972632 47.3913462,59.9450263 47.3913462,58.4007368 L47.3913462,48.1201579 L41.8546154,48.1201579 L41.8513846,48.1201579 L41.8513846,48.1201579 Z M62.3061923,27.3599474 L58.9300385,23.8879474 L58.9300385,21.6282105 C58.9300385,20.5880789 58.0973077,19.7445526 57.0666923,19.7445526 L53.0993077,19.7445526 L55.377,29.1938421 C56.3349231,29.2762368 57.0844615,30.0765263 57.0844615,31.0628158 C57.0844615,31.7342105 56.7339231,32.3207632 56.2113462,32.6536053 L56.9891538,35.8767895 L57.0666923,35.8767895 C58.0940769,35.8767895 58.9300385,35.0365263 58.9300385,33.9931316 L58.9300385,31.4935526 L61.5534231,30.5831316 C62.181,30.3645 62.6559231,29.8350526 62.8093846,29.1807895 C62.9620385,28.5273421 62.7730385,27.8388158 62.3061923,27.3599474 L62.3061923,27.3599474 Z M48.7789615,58.4007368 L48.7773462,58.4007368 C48.7773462,59.9450263 50.0171538,61.1972632 51.5461154,61.1972632 C53.0758846,61.1972632 54.3173077,59.9450263 54.3173077,58.4007368 L54.3173077,48.1201579 L48.7797692,48.1201579 L48.7797692,58.4007368 L48.7789615,58.4007368 Z" id="Shape"></path>
            </g>
            <path d="M83.352,23.136 C83.4320004,23.3600011 83.5959988,23.5119996 83.844,23.592 C84.0920012,23.6720004 84.4959972,23.712 85.056,23.712 C85.0880002,23.712 85.104,23.7599995 85.104,23.856 C85.104,23.9520005 85.0880002,24 85.056,24 C84.5279974,24 84.1120015,23.9920001 83.808,23.976 L82.032,23.952 L80.304,23.976 C79.9999985,23.9920001 79.5840026,24 79.056,24 C79.0079998,24 78.984,23.9520005 78.984,23.856 C78.984,23.7599995 79.0079998,23.712 79.056,23.712 C79.6000027,23.712 79.9959988,23.6720004 80.244,23.592 C80.4920012,23.5119996 80.6639995,23.3560012 80.76,23.124 C80.8560005,22.8919988 80.904,22.5360024 80.904,22.056 L80.904,10.944 C80.904,10.4639976 80.8560005,10.1120011 80.76,9.888 C80.6639995,9.66399888 80.4920012,9.50800044 80.244,9.42 C79.9959988,9.33199956 79.6000027,9.288 79.056,9.288 C79.0079998,9.288 78.984,9.24000048 78.984,9.144 C78.984,9.04799952 79.0079998,9 79.056,9 L80.304,9.024 C81.0080035,9.05600016 81.5839978,9.072 82.032,9.072 C82.5120024,9.072 83.1199963,9.05600016 83.856,9.024 L85.056,9 C85.0880002,9 85.104,9.04799952 85.104,9.144 C85.104,9.24000048 85.0880002,9.288 85.056,9.288 C84.5279974,9.288 84.1360013,9.33599952 83.88,9.432 C83.6239987,9.52800048 83.4520004,9.69199884 83.364,9.924 C83.2759996,10.1560012 83.232,10.5119976 83.232,10.992 L83.232,22.056 C83.232,22.5520025 83.2719996,22.9119989 83.352,23.136 L83.352,23.136 Z M98.304,23.856 C98.304,23.9520005 98.2720003,24 98.208,24 C97.807998,24 97.4880012,23.9920001 97.248,23.976 L95.88,23.952 L94.512,23.976 C94.2719988,23.9920001 93.9440021,24 93.528,24 C93.4959998,24 93.48,23.9520005 93.48,23.856 C93.48,23.7599995 93.4959998,23.712 93.528,23.712 C94.0720027,23.712 94.4359991,23.6000011 94.62,23.376 C94.8040009,23.1519989 94.896,22.7120033 94.896,22.056 L94.896,18.456 C94.896,17.5599955 94.7320016,16.9000021 94.404,16.476 C94.0759984,16.0519979 93.5600035,15.84 92.856,15.84 C92.4239978,15.84 91.9880022,15.939999 91.548,16.14 C91.1079978,16.340001 90.7200017,16.6079983 90.384,16.944 L90.384,22.056 C90.384,22.7120033 90.4759991,23.1519989 90.66,23.376 C90.8440009,23.6000011 91.2079973,23.712 91.752,23.712 C91.8160003,23.712 91.848,23.7599995 91.848,23.856 C91.848,23.9520005 91.8160003,24 91.752,24 C91.351998,24 91.0320012,23.9920001 90.792,23.976 L89.424,23.952 L88.056,23.976 C87.8159988,23.9920001 87.4880021,24 87.072,24 C87.0399998,24 87.024,23.9520005 87.024,23.856 C87.024,23.7599995 87.0399998,23.712 87.072,23.712 C87.6160027,23.712 87.9799991,23.6000011 88.164,23.376 C88.3480009,23.1519989 88.44,22.7120033 88.44,22.056 L88.44,17.472 C88.44,16.9599974 88.3800006,16.5880012 88.26,16.356 C88.1399994,16.1239988 87.9440014,16.008 87.672,16.008 C87.3999986,16.008 86.9920027,16.1199989 86.448,16.344 L86.424,16.344 C86.3599997,16.344 86.3160001,16.3040004 86.292,16.224 C86.2679999,16.1439996 86.2799998,16.0960001 86.328,16.08 L89.496,14.544 C89.5600003,14.5119998 89.6079998,14.496 89.64,14.496 C89.8160009,14.496 89.9799992,14.6719982 90.132,15.024 C90.2840008,15.3760018 90.3679999,15.847997 90.384,16.44 C91.5040056,15.1119934 92.7279934,14.448 94.056,14.448 C94.9200043,14.448 95.5999975,14.7159973 96.096,15.252 C96.5920025,15.7880027 96.84,16.5119954 96.84,17.424 L96.84,22.056 C96.84,22.7120033 96.9319991,23.1519989 97.116,23.376 C97.3000009,23.6000011 97.6639973,23.712 98.208,23.712 C98.2720003,23.712 98.304,23.7599995 98.304,23.856 L98.304,23.856 Z M108.696,22.704 C108.76,22.704 108.804,22.7399996 108.828,22.812 C108.852,22.8840004 108.832,22.9359998 108.768,22.968 L106.296,24.144 C106.2,24.1760002 106.12,24.192 106.056,24.192 C105.815999,24.192 105.588001,24.0560014 105.372,23.784 C105.155999,23.5119986 105.016,23.1360024 104.952,22.656 L103.848,23.424 C103.463998,23.6960014 103.120002,23.8879994 102.816,24 C102.511998,24.1120006 102.168002,24.168 101.784,24.168 C101.111997,24.168 100.604002,24.0160015 100.26,23.712 C99.9159983,23.4079985 99.744,22.9920026 99.744,22.464 C99.744,22.0319978 99.8599988,21.6800014 100.092,21.408 C100.324001,21.1359986 100.611998,20.9200008 100.956,20.76 C101.300002,20.5999992 101.839996,20.3840014 102.576,20.112 L104.904,19.248 L104.904,17.808 C104.904,16.799995 104.804001,16.0720022 104.604,15.624 C104.403999,15.1759978 104.088002,14.952 103.656,14.952 C103.127997,14.952 102.748001,15.147998 102.516,15.54 C102.283999,15.932002 102.144,16.3679976 102.096,16.848 C102,17.6800042 101.592004,18.096 100.872,18.096 C100.519998,18.096 100.260001,18.0160008 100.092,17.856 C99.9239992,17.6959992 99.84,17.4880013 99.84,17.232 C99.84,16.7839978 100.107997,16.3480021 100.644,15.924 C101.180003,15.4999979 101.827996,15.1560013 102.588,14.892 C103.348004,14.6279987 104.015997,14.496 104.592,14.496 C105.280003,14.496 105.827998,14.7159978 106.236,15.156 C106.644002,15.5960022 106.848,16.2319958 106.848,17.064 L106.848,21.408 C106.848,22.416005 107.167997,22.92 107.808,22.92 C108.032001,22.92 108.311998,22.8480007 108.648,22.704 L108.696,22.704 Z M104.904,22.248 L104.904,22.032 L104.904,19.656 L103.464,20.256 C103.047998,20.4160008 102.708001,20.6039989 102.444,20.82 C102.179999,21.0360011 102.048,21.343998 102.048,21.744 C102.048,22.144002 102.171999,22.4599988 102.42,22.692 C102.668001,22.9240012 102.967998,23.04 103.32,23.04 C103.592001,23.04 103.887998,22.9280011 104.208,22.704 L104.904,22.248 Z M131.616,23.868 C131.616,23.9560004 131.592,24 131.544,24 L128.064,24 C127.551997,24 126.672006,23.5520045 125.424,22.656 C124.207994,23.7440054 122.64801,24.288 120.744,24.288 C119.671995,24.288 118.776004,24.1240016 118.056,23.796 C117.335996,23.4679984 116.800002,23.0400026 116.448,22.512 C116.095998,21.9839974 115.92,21.416003 115.92,20.808 C115.92,19.9759958 116.187997,19.2480031 116.724,18.624 C117.260003,17.9999969 118.063995,17.288004 119.136,16.488 C118.927999,16.1679984 118.688001,15.7760023 118.416,15.312 C118.175999,14.8639978 118.000001,14.436002 117.888,14.028 C117.775999,13.619998 117.72,13.1840023 117.72,12.72 C117.72,11.919996 117.899998,11.2000032 118.26,10.56 C118.620002,9.9199968 119.131997,9.41600184 119.796,9.048 C120.460003,8.67999816 121.231996,8.496 122.112,8.496 C123.024005,8.496 123.767997,8.695998 124.344,9.096 C124.920003,9.496002 125.208,10.0879961 125.208,10.872 C125.208,11.464003 125.052002,12.0079975 124.74,12.504 C124.427998,13.0000025 124.040002,13.4359981 123.576,13.812 C123.111998,14.1880019 122.496004,14.6319974 121.728,15.144 L121.272,15.456 C121.864003,16.3680046 122.587996,17.2639956 123.444,18.144 C124.300004,19.0240044 125.223995,19.8479962 126.216,20.616 C126.472001,19.9599967 126.6,19.1760046 126.6,18.264 C126.6,17.4479959 126.460001,16.8520019 126.18,16.476 C125.899999,16.0999981 125.416003,15.912 124.728,15.912 C124.696,15.912 124.676,15.8640005 124.668,15.768 C124.66,15.6719995 124.68,15.624 124.728,15.624 L130.2,15.6 C130.264,15.6 130.296,15.6479995 130.296,15.744 C130.296,15.8400005 130.264,15.888 130.2,15.888 C129.703998,15.888 129.332001,15.9399995 129.084,16.044 C128.835999,16.1480005 128.656001,16.3079989 128.544,16.524 C128.431999,16.7400011 128.304001,17.0879976 128.16,17.568 C127.967999,18.2400034 127.768001,18.8519972 127.56,19.404 C127.351999,19.9560028 127.080002,20.4959974 126.744,21.024 C127.752005,21.7760038 128.675996,22.3839977 129.516,22.848 C130.356004,23.3120023 131.031997,23.5999994 131.544,23.712 C131.592,23.7280001 131.616,23.7799996 131.616,23.868 L131.616,23.868 Z M121.008,15.048 C121.648003,14.4879972 122.143998,13.912003 122.496,13.32 C122.848002,12.727997 123.024,12.0720036 123.024,11.352 C123.024,10.6479965 122.852002,10.096002 122.508,9.696 C122.163998,9.295998 121.712003,9.096 121.152,9.096 C120.175995,9.096 119.688,9.7359936 119.688,11.016 C119.688,12.2480062 120.127996,13.5919927 121.008,15.048 L121.008,15.048 Z M125.016,22.368 L124.176,21.696 C123.295996,20.9919965 122.432004,20.2160042 121.584,19.368 C120.735996,18.5199958 120.008003,17.6880041 119.4,16.872 C118.487995,17.7040042 118.032,18.615995 118.032,19.608 C118.032,20.2480032 118.211998,20.8479972 118.572,21.408 C118.932002,21.9680028 119.435997,22.4159983 120.084,22.752 C120.732003,23.0880017 121.479996,23.256 122.328,23.256 C123.432006,23.256 124.327997,22.960003 125.016,22.368 L125.016,22.368 Z M144.072,9.144 C144.072,9.24000048 144.056,9.288 144.024,9.288 C143.575998,9.288 143.244001,9.33599952 143.028,9.432 C142.811999,9.52800048 142.668,9.69199884 142.596,9.924 C142.524,10.1560012 142.488,10.5119976 142.488,10.992 L142.488,24.288 C142.488,26.0160086 142.072004,27.3719951 141.24,28.356 C140.407996,29.3400049 139.232008,29.832 137.712,29.832 C137.119997,29.832 136.640002,29.7160012 136.272,29.484 C135.903998,29.2519988 135.72,28.936002 135.72,28.536 C135.72,28.2319985 135.815999,27.9720011 136.008,27.756 C136.200001,27.5399989 136.479998,27.432 136.848,27.432 C137.200002,27.432 137.471999,27.531999 137.664,27.732 C137.856001,27.932001 138.031999,28.2079982 138.192,28.56 C138.304001,28.8160013 138.415999,29.0079994 138.528,29.136 C138.640001,29.2640006 138.775999,29.328 138.936,29.328 C139.352002,29.328 139.659999,29.0360029 139.86,28.452 C140.060001,27.8679971 140.16,26.9120066 140.16,25.584 L140.16,10.944 C140.16,10.4639976 140.108001,10.1120011 140.004,9.888 C139.899999,9.66399888 139.700001,9.50800044 139.404,9.42 C139.107999,9.33199956 138.648003,9.288 138.024,9.288 C137.992,9.288 137.976,9.24000048 137.976,9.144 C137.976,9.04799952 137.992,9 138.024,9 L139.464,9.024 C140.232004,9.05600016 140.839998,9.072 141.288,9.072 C141.736002,9.072 142.279997,9.05600016 142.92,9.024 L144.024,9 C144.056,9 144.072,9.04799952 144.072,9.144 L144.072,9.144 Z M147.696,23.628 C146.959996,23.1719977 146.392002,22.5560039 145.992,21.78 C145.591998,21.0039961 145.392,20.1600046 145.392,19.248 C145.392,18.2079948 145.651997,17.3240036 146.172,16.596 C146.692003,15.8679964 147.355996,15.3240018 148.164,14.964 C148.972004,14.6039982 149.799996,14.424 150.648,14.424 C151.624005,14.424 152.475996,14.6559977 153.204,15.12 C153.932004,15.5840023 154.491998,16.1959962 154.884,16.956 C155.276002,17.7160038 155.472,18.5279957 155.472,19.392 C155.472,20.3520048 155.232002,21.2079962 154.752,21.96 C154.271998,22.7120038 153.636004,23.291998 152.844,23.7 C152.051996,24.108002 151.192005,24.312 150.264,24.312 C149.287995,24.312 148.432004,24.0840023 147.696,23.628 L147.696,23.628 Z M152.592,22.896 C152.976002,22.2719969 153.168,21.360006 153.168,20.16 C153.168,19.0879946 153.016002,18.156004 152.712,17.364 C152.407998,16.571996 152.004003,15.9680021 151.5,15.552 C150.995997,15.1359979 150.448003,14.928 149.856,14.928 C149.151996,14.928 148.612002,15.2199971 148.236,15.804 C147.859998,16.3880029 147.672,17.2559942 147.672,18.408 C147.672,19.4480052 147.815999,20.3799959 148.104,21.204 C148.392001,22.0280041 148.783998,22.6719977 149.28,23.136 C149.776002,23.6000023 150.327997,23.832 150.936,23.832 C151.656004,23.832 152.207998,23.5200031 152.592,22.896 L152.592,22.896 Z M168.456,23.856 C168.456,23.9520005 168.424,24 168.36,24 C167.959998,24 167.640001,23.9920001 167.4,23.976 L166.032,23.952 L164.664,23.976 C164.423999,23.9920001 164.096002,24 163.68,24 C163.648,24 163.632,23.9520005 163.632,23.856 C163.632,23.7599995 163.648,23.712 163.68,23.712 C164.224003,23.712 164.587999,23.6000011 164.772,23.376 C164.956001,23.1519989 165.048,22.7120033 165.048,22.056 L165.048,18.456 C165.048,17.5599955 164.884002,16.9000021 164.556,16.476 C164.227998,16.0519979 163.712004,15.84 163.008,15.84 C162.575998,15.84 162.140002,15.939999 161.7,16.14 C161.259998,16.340001 160.872002,16.6079983 160.536,16.944 L160.536,22.056 C160.536,22.7120033 160.627999,23.1519989 160.812,23.376 C160.996001,23.6000011 161.359997,23.712 161.904,23.712 C161.968,23.712 162,23.7599995 162,23.856 C162,23.9520005 161.968,24 161.904,24 C161.503998,24 161.184001,23.9920001 160.944,23.976 L159.576,23.952 L158.208,23.976 C157.967999,23.9920001 157.640002,24 157.224,24 C157.192,24 157.176,23.9520005 157.176,23.856 C157.176,23.7599995 157.192,23.712 157.224,23.712 C157.768003,23.712 158.131999,23.6000011 158.316,23.376 C158.500001,23.1519989 158.592,22.7120033 158.592,22.056 L158.592,17.472 C158.592,16.9599974 158.532001,16.5880012 158.412,16.356 C158.291999,16.1239988 158.096001,16.008 157.824,16.008 C157.551999,16.008 157.144003,16.1199989 156.6,16.344 L156.576,16.344 C156.512,16.344 156.468,16.3040004 156.444,16.224 C156.42,16.1439996 156.432,16.0960001 156.48,16.08 L159.648,14.544 C159.712,14.5119998 159.76,14.496 159.792,14.496 C159.968001,14.496 160.131999,14.6719982 160.284,15.024 C160.436001,15.3760018 160.52,15.847997 160.536,16.44 C161.656006,15.1119934 162.879993,14.448 164.208,14.448 C165.072004,14.448 165.751998,14.7159973 166.248,15.252 C166.744002,15.7880027 166.992,16.5119954 166.992,17.424 L166.992,22.056 C166.992,22.7120033 167.083999,23.1519989 167.268,23.376 C167.452001,23.6000011 167.815997,23.712 168.36,23.712 C168.424,23.712 168.456,23.7599995 168.456,23.856 L168.456,23.856 Z M178.848,22.704 C178.912,22.704 178.956,22.7399996 178.98,22.812 C179.004,22.8840004 178.984,22.9359998 178.92,22.968 L176.448,24.144 C176.352,24.1760002 176.272,24.192 176.208,24.192 C175.967999,24.192 175.740001,24.0560014 175.524,23.784 C175.307999,23.5119986 175.168,23.1360024 175.104,22.656 L174,23.424 C173.615998,23.6960014 173.272002,23.8879994 172.968,24 C172.663998,24.1120006 172.320002,24.168 171.936,24.168 C171.263997,24.168 170.756002,24.0160015 170.412,23.712 C170.067998,23.4079985 169.896,22.9920026 169.896,22.464 C169.896,22.0319978 170.011999,21.6800014 170.244,21.408 C170.476001,21.1359986 170.763998,20.9200008 171.108,20.76 C171.452002,20.5999992 171.991996,20.3840014 172.728,20.112 L175.056,19.248 L175.056,17.808 C175.056,16.799995 174.956001,16.0720022 174.756,15.624 C174.555999,15.1759978 174.240002,14.952 173.808,14.952 C173.279997,14.952 172.900001,15.147998 172.668,15.54 C172.435999,15.932002 172.296,16.3679976 172.248,16.848 C172.152,17.6800042 171.744004,18.096 171.024,18.096 C170.671998,18.096 170.412001,18.0160008 170.244,17.856 C170.075999,17.6959992 169.992,17.4880013 169.992,17.232 C169.992,16.7839978 170.259997,16.3480021 170.796,15.924 C171.332003,15.4999979 171.979996,15.1560013 172.74,14.892 C173.500004,14.6279987 174.167997,14.496 174.744,14.496 C175.432003,14.496 175.979998,14.7159978 176.388,15.156 C176.796002,15.5960022 177,16.2319958 177,17.064 L177,21.408 C177,22.416005 177.319997,22.92 177.96,22.92 C178.184001,22.92 178.463998,22.8480007 178.8,22.704 L178.848,22.704 Z M175.056,22.248 L175.056,22.032 L175.056,19.656 L173.616,20.256 C173.199998,20.4160008 172.860001,20.6039989 172.596,20.82 C172.331999,21.0360011 172.2,21.343998 172.2,21.744 C172.2,22.144002 172.323999,22.4599988 172.572,22.692 C172.820001,22.9240012 173.119998,23.04 173.472,23.04 C173.744001,23.04 174.039998,22.9280011 174.36,22.704 L175.056,22.248 Z M182.088,17.244 C182.424002,17.5720016 182.919997,17.9199982 183.576,18.288 C184.152003,18.6080016 184.599998,18.871999 184.92,19.08 C185.240002,19.288001 185.515999,19.5679982 185.748,19.92 C185.980001,20.2720018 186.096,20.6959975 186.096,21.192 C186.096,21.7360027 185.960001,22.2399977 185.688,22.704 C185.415999,23.1680023 185.012003,23.5439986 184.476,23.832 C183.939997,24.1200014 183.304004,24.264 182.568,24.264 C181.719996,24.264 180.912004,24.0400022 180.144,23.592 C180.048,23.4959995 180,23.4000005 180,23.304 L179.952,21.096 C179.952,21.0479998 179.996,21.02 180.084,21.012 C180.172,21.004 180.224,21.0239998 180.24,21.072 C180.512001,21.8560039 180.927997,22.5039974 181.488,23.016 C182.048003,23.5280026 182.639997,23.784 183.264,23.784 C183.648002,23.784 183.951999,23.680001 184.176,23.472 C184.400001,23.263999 184.512,22.960002 184.512,22.56 C184.512,21.9359969 184.336002,21.4480018 183.984,21.096 C183.631998,20.7439982 183.120003,20.3840018 182.448,20.016 C181.903997,19.7279986 181.480002,19.484001 181.176,19.284 C180.871998,19.083999 180.612001,18.8160017 180.396,18.48 C180.179999,18.1439983 180.072,17.7200026 180.072,17.208 C180.072,16.2959954 180.403997,15.6120023 181.068,15.156 C181.732003,14.6999977 182.535995,14.472 183.48,14.472 C184.104003,14.472 184.743997,14.5919988 185.4,14.832 C185.544001,14.8960003 185.616,14.9839994 185.616,15.096 C185.616,15.4640018 185.608,15.751999 185.592,15.96 L185.568,17.112 C185.568,17.1600002 185.52,17.184 185.424,17.184 C185.328,17.184 185.28,17.1600002 185.28,17.112 C185.28,16.7919984 185.152001,16.4640017 184.896,16.128 C184.639999,15.7919983 184.312002,15.5120011 183.912,15.288 C183.511998,15.0639989 183.104002,14.952 182.688,14.952 C181.951996,14.952 181.584,15.2959966 181.584,15.984 C181.584,16.4960026 181.751998,16.9159984 182.088,17.244 L182.088,17.244 Z M85.68,54.464 C85.7280002,54.464 85.7719998,54.4959997 85.812,54.56 C85.8520002,54.6240003 85.8480002,54.6799998 85.8,54.728 C85.207997,55.2720027 84.6480026,55.6679988 84.12,55.916 C83.5919974,56.1640012 83.032003,56.288 82.44,56.288 C81.7519966,56.288 81.1720024,56.1240016 80.7,55.796 C80.2279976,55.4679984 79.992,54.9280038 79.992,54.176 L79.992,48.728 C79.992,48.1999974 79.9080008,47.8480009 79.74,47.672 C79.5719992,47.4959991 79.2480024,47.408 78.768,47.408 C78.7359998,47.408 78.7120001,47.3880002 78.696,47.348 C78.6799999,47.3079998 78.672,47.2560003 78.672,47.192 C78.672,47.1439998 78.6839999,47.1000002 78.708,47.06 C78.7320001,47.0199998 78.7519999,47 78.768,47 C80.2720075,46.9519998 81.2159981,46.3120062 81.6,45.08 C81.6320002,45.0159997 81.6999995,44.984 81.804,44.984 C81.9080005,44.984 81.96,45.0159997 81.96,45.08 L81.96,46.976 C83.0320054,46.9279998 84.0959947,46.8480006 85.152,46.736 C85.2000002,46.736 85.2399998,46.7919994 85.272,46.904 C85.3040002,47.0160006 85.32,47.1519992 85.32,47.312 C85.32,47.4560007 85.2920003,47.6039992 85.236,47.756 C85.1799997,47.9080008 85.1280002,47.9760001 85.08,47.96 C84.1839955,47.7359989 83.1440059,47.6000002 81.96,47.552 L81.96,53.36 C81.96,53.9840031 82.1159984,54.4479985 82.428,54.752 C82.7400016,55.0560015 83.1759972,55.208 83.736,55.208 C84.3920033,55.208 85.023997,54.9680024 85.632,54.488 L85.68,54.464 Z M94.128,46.856 C94.4640017,47.0960012 94.632,47.3839983 94.632,47.72 C94.632,48.0080014 94.5400009,48.247999 94.356,48.44 C94.1719991,48.632001 93.9200016,48.728 93.6,48.728 C93.391999,48.728 93.2200007,48.6880004 93.084,48.608 C92.9479993,48.5279996 92.8000008,48.4080008 92.64,48.248 C92.4799992,48.0879992 92.3520005,47.9760003 92.256,47.912 C92.1599995,47.8479997 92.0320008,47.816 91.872,47.816 C91.6959991,47.816 91.508001,47.8839993 91.308,48.02 C91.107999,48.1560007 90.7920022,48.4479978 90.36,48.896 L90.36,54.056 C90.36,54.6960032 90.5119985,55.1319988 90.816,55.364 C91.1200015,55.5960012 91.7039957,55.712 92.568,55.712 C92.6320003,55.712 92.664,55.7599995 92.664,55.856 C92.664,55.9520005 92.6320003,56 92.568,56 C92.0239973,56 91.5920016,55.9920001 91.272,55.976 L89.4,55.952 L88.032,55.976 C87.7919988,55.9920001 87.4640021,56 87.048,56 C87.0159998,56 87,55.9520005 87,55.856 C87,55.7599995 87.0159998,55.712 87.048,55.712 C87.5920027,55.712 87.9559991,55.6000011 88.14,55.376 C88.3240009,55.1519989 88.416,54.7120033 88.416,54.056 L88.416,49.472 C88.416,48.9599974 88.3560006,48.5880012 88.236,48.356 C88.1159994,48.1239988 87.9200014,48.008 87.648,48.008 C87.3759986,48.008 86.9680027,48.1199989 86.424,48.344 L86.4,48.344 C86.3359997,48.344 86.2920001,48.3040004 86.268,48.224 C86.2439999,48.1439996 86.2559998,48.0960001 86.304,48.08 L89.472,46.544 C89.5360003,46.5119998 89.5839998,46.496 89.616,46.496 C89.7920009,46.496 89.9559992,46.6679983 90.108,47.012 C90.2600008,47.3560017 90.3439999,47.8159971 90.36,48.392 C91.0000032,47.6719964 91.5279979,47.1760014 91.944,46.904 C92.3600021,46.6319986 92.7359983,46.496 93.072,46.496 C93.4400018,46.496 93.7919983,46.6159988 94.128,46.856 L94.128,46.856 Z M104.784,54.704 C104.848,54.704 104.892,54.7399996 104.916,54.812 C104.94,54.8840004 104.92,54.9359998 104.856,54.968 L102.384,56.144 C102.288,56.1760002 102.208,56.192 102.144,56.192 C101.903999,56.192 101.676001,56.0560014 101.46,55.784 C101.243999,55.5119986 101.104,55.1360024 101.04,54.656 L99.936,55.424 C99.5519981,55.6960014 99.2080015,55.8879994 98.904,56 C98.5999985,56.1120006 98.2560019,56.168 97.872,56.168 C97.1999966,56.168 96.6920017,56.0160015 96.348,55.712 C96.0039983,55.4079985 95.832,54.9920026 95.832,54.464 C95.832,54.0319978 95.9479988,53.6800014 96.18,53.408 C96.4120012,53.1359986 96.6999983,52.9200008 97.044,52.76 C97.3880017,52.5999992 97.9279963,52.3840014 98.664,52.112 L100.992,51.248 L100.992,49.808 C100.992,48.799995 100.892001,48.0720022 100.692,47.624 C100.491999,47.1759978 100.176002,46.952 99.744,46.952 C99.2159974,46.952 98.8360012,47.147998 98.604,47.54 C98.3719988,47.932002 98.2320002,48.3679976 98.184,48.848 C98.0879995,49.6800042 97.6800036,50.096 96.96,50.096 C96.6079982,50.096 96.3480008,50.0160008 96.18,49.856 C96.0119992,49.6959992 95.928,49.4880013 95.928,49.232 C95.928,48.7839978 96.1959973,48.3480021 96.732,47.924 C97.2680027,47.4999979 97.9159962,47.1560013 98.676,46.892 C99.4360038,46.6279987 100.103997,46.496 100.68,46.496 C101.368003,46.496 101.915998,46.7159978 102.324,47.156 C102.732002,47.5960022 102.936,48.2319958 102.936,49.064 L102.936,53.408 C102.936,54.416005 103.255997,54.92 103.896,54.92 C104.120001,54.92 104.399998,54.8480007 104.736,54.704 L104.784,54.704 Z M100.992,54.248 L100.992,54.032 L100.992,51.656 L99.552,52.256 C99.1359979,52.4160008 98.7960013,52.6039989 98.532,52.82 C98.2679987,53.0360011 98.136,53.343998 98.136,53.744 C98.136,54.144002 98.2599988,54.4599988 98.508,54.692 C98.7560012,54.9240012 99.0559982,55.04 99.408,55.04 C99.6800014,55.04 99.9759984,54.9280011 100.296,54.704 L100.992,54.248 Z M115.296,46.88 C115.296,46.9760005 115.28,47.024 115.248,47.024 C114.799998,47.024 114.412002,47.1839984 114.084,47.504 C113.755998,47.8240016 113.440002,48.3359965 113.136,49.04 L110.184,56 C110.136,56.0800004 110.048001,56.12 109.92,56.12 C109.775999,56.12 109.68,56.0800004 109.632,56 L106.08,48.728 C105.727998,48.0239965 105.436001,47.5640011 105.204,47.348 C104.971999,47.1319989 104.680002,47.024 104.328,47.024 C104.28,47.024 104.256,46.9760005 104.256,46.88 C104.256,46.7839995 104.28,46.736 104.328,46.736 C104.616001,46.736 104.847999,46.7439999 105.024,46.76 L106.416,46.784 L108.192,46.76 C108.448001,46.7439999 108.799998,46.736 109.248,46.736 C109.296,46.736 109.32,46.7839995 109.32,46.88 C109.32,46.9760005 109.296,47.024 109.248,47.024 C108.303995,47.024 107.832,47.2079982 107.832,47.576 C107.832,47.6720005 107.872,47.7999992 107.952,47.96 L110.712,53.432 L112.536,48.992 C112.648001,48.7199986 112.704,48.4560013 112.704,48.2 C112.704,47.8159981 112.564001,47.524001 112.284,47.324 C112.003999,47.123999 111.592003,47.024 111.048,47.024 C111.016,47.024 111,46.9760005 111,46.88 C111,46.7839995 111.016,46.736 111.048,46.736 C111.480002,46.736 111.807999,46.7439999 112.032,46.76 L113.472,46.784 L114.408,46.76 C114.584001,46.7439999 114.863998,46.736 115.248,46.736 C115.28,46.736 115.296,46.7839995 115.296,46.88 L115.296,46.88 Z M124.152,54.488 C124.184,54.488 124.22,54.5199997 124.26,54.584 C124.3,54.6480003 124.304,54.6959998 124.272,54.728 C123.679997,55.2720027 123.088003,55.6679988 122.496,55.916 C121.903997,56.1640012 121.264003,56.288 120.576,56.288 C119.599995,56.288 118.756004,56.0760021 118.044,55.652 C117.331996,55.2279979 116.788002,54.6600036 116.412,53.948 C116.035998,53.2359964 115.848,52.4640042 115.848,51.632 C115.848,50.7039954 116.079998,49.8480039 116.544,49.064 C117.008002,48.2799961 117.643996,47.6600023 118.452,47.204 C119.260004,46.7479977 120.167995,46.52 121.176,46.52 C122.120005,46.52 122.855997,46.7519977 123.384,47.216 C123.912003,47.6800023 124.176,48.3679954 124.176,49.28 C124.176,49.5200012 124.156,49.6959994 124.116,49.808 C124.076,49.9200006 124.000001,49.976 123.888,49.976 L118.032,50 C118.016,50.1440007 118.008,50.3679985 118.008,50.672 C118.008,52.064007 118.331997,53.1679959 118.98,53.984 C119.628003,54.8000041 120.551994,55.208 121.752,55.208 C122.200002,55.208 122.579998,55.1560005 122.892,55.052 C123.204002,54.9479995 123.607998,54.7680013 124.104,54.512 L124.152,54.488 Z M118.836,47.684 C118.459998,48.1400023 118.208001,48.767996 118.08,49.568 L121.896,49.52 C121.896,47.8399916 121.360005,47 120.288,47 C119.695997,47 119.212002,47.2279977 118.836,47.684 L118.836,47.684 Z M125.808,55.856 C125.808,55.7599995 125.832,55.712 125.88,55.712 C126.408003,55.712 126.767999,55.5960012 126.96,55.364 C127.152001,55.1319988 127.248,54.6960032 127.248,54.056 L127.248,41.792 C127.248,41.2319972 127.196001,40.8280012 127.092,40.58 C126.987999,40.3319988 126.800001,40.208 126.528,40.208 C126.287999,40.208 125.968002,40.303999 125.568,40.496 L125.544,40.496 C125.48,40.496 125.428,40.4520004 125.388,40.364 C125.348,40.2759996 125.36,40.2240001 125.424,40.208 L128.784,38.624 L128.88,38.6 C128.944,38.6 129.016,38.6319997 129.096,38.696 C129.176,38.7600003 129.216,38.8159998 129.216,38.864 L129.216,54.056 C129.216,54.7120033 129.307999,55.1519989 129.492,55.376 C129.676001,55.6000011 130.039997,55.712 130.584,55.712 C130.632,55.712 130.656,55.7599995 130.656,55.856 C130.656,55.9520005 130.632,56 130.584,56 C130.183998,56 129.864001,55.9920001 129.624,55.976 L128.208,55.952 L126.84,55.976 C126.599999,55.9920001 126.280002,56 125.88,56 C125.832,56 125.808,55.9520005 125.808,55.856 L125.808,55.856 Z M132.168,55.856 C132.168,55.7599995 132.192,55.712 132.24,55.712 C132.768003,55.712 133.127999,55.5960012 133.32,55.364 C133.512001,55.1319988 133.608,54.6960032 133.608,54.056 L133.608,41.792 C133.608,41.2319972 133.556001,40.8280012 133.452,40.58 C133.347999,40.3319988 133.160001,40.208 132.888,40.208 C132.647999,40.208 132.328002,40.303999 131.928,40.496 L131.904,40.496 C131.84,40.496 131.788,40.4520004 131.748,40.364 C131.708,40.2759996 131.72,40.2240001 131.784,40.208 L135.144,38.624 L135.24,38.6 C135.304,38.6 135.376,38.6319997 135.456,38.696 C135.536,38.7600003 135.576,38.8159998 135.576,38.864 L135.576,54.056 C135.576,54.7120033 135.667999,55.1519989 135.852,55.376 C136.036001,55.6000011 136.399997,55.712 136.944,55.712 C136.992,55.712 137.016,55.7599995 137.016,55.856 C137.016,55.9520005 136.992,56 136.944,56 C136.543998,56 136.224001,55.9920001 135.984,55.976 L134.568,55.952 L133.2,55.976 C132.959999,55.9920001 132.640002,56 132.24,56 C132.192,56 132.168,55.9520005 132.168,55.856 L132.168,55.856 Z M138.696,55.856 C138.696,55.7599995 138.72,55.712 138.768,55.712 C139.296003,55.712 139.655999,55.5960012 139.848,55.364 C140.040001,55.1319988 140.136,54.6960032 140.136,54.056 L140.136,49.712 C140.136,49.1519972 140.076001,48.7480012 139.956,48.5 C139.835999,48.2519988 139.640001,48.128 139.368,48.128 C139.127999,48.128 138.808002,48.223999 138.408,48.416 L138.384,48.416 C138.32,48.416 138.276,48.3760004 138.252,48.296 C138.228,48.2159996 138.24,48.1600002 138.288,48.128 L141.72,46.52 L141.816,46.496 C141.88,46.496 141.948,46.5319996 142.02,46.604 C142.092,46.6760004 142.128,46.7359998 142.128,46.784 L142.128,47.288 C142.096,47.9600034 142.08,48.7519954 142.08,49.664 L142.08,54.056 C142.08,54.7120033 142.171999,55.1519989 142.356,55.376 C142.540001,55.6000011 142.903997,55.712 143.448,55.712 C143.496,55.712 143.52,55.7599995 143.52,55.856 C143.52,55.9520005 143.496,56 143.448,56 C143.031998,56 142.704001,55.9920001 142.464,55.976 L141.096,55.952 L139.728,55.976 C139.487999,55.9920001 139.168002,56 138.768,56 C138.72,56 138.696,55.9520005 138.696,55.856 L138.696,55.856 Z M139.968,43.652 C139.727999,43.4199988 139.608,43.0960021 139.608,42.68 C139.608,42.2959981 139.727999,41.9920011 139.968,41.768 C140.208001,41.5439989 140.535998,41.432 140.952,41.432 C141.352002,41.432 141.663999,41.5439989 141.888,41.768 C142.112001,41.9920011 142.224,42.2959981 142.224,42.68 C142.224,43.0960021 142.112001,43.4199988 141.888,43.652 C141.663999,43.8840012 141.352002,44 140.952,44 C140.535998,44 140.208001,43.8840012 139.968,43.652 L139.968,43.652 Z M156.288,55.856 C156.288,55.9520005 156.256,56 156.192,56 C155.791998,56 155.472001,55.9920001 155.232,55.976 L153.864,55.952 L152.496,55.976 C152.255999,55.9920001 151.928002,56 151.512,56 C151.48,56 151.464,55.9520005 151.464,55.856 C151.464,55.7599995 151.48,55.712 151.512,55.712 C152.056003,55.712 152.419999,55.6000011 152.604,55.376 C152.788001,55.1519989 152.88,54.7120033 152.88,54.056 L152.88,50.456 C152.88,49.5599955 152.716002,48.9000021 152.388,48.476 C152.059998,48.0519979 151.544004,47.84 150.84,47.84 C150.407998,47.84 149.972002,47.939999 149.532,48.14 C149.091998,48.340001 148.704002,48.6079983 148.368,48.944 L148.368,54.056 C148.368,54.7120033 148.459999,55.1519989 148.644,55.376 C148.828001,55.6000011 149.191997,55.712 149.736,55.712 C149.8,55.712 149.832,55.7599995 149.832,55.856 C149.832,55.9520005 149.8,56 149.736,56 C149.335998,56 149.016001,55.9920001 148.776,55.976 L147.408,55.952 L146.04,55.976 C145.799999,55.9920001 145.472002,56 145.056,56 C145.024,56 145.008,55.9520005 145.008,55.856 C145.008,55.7599995 145.024,55.712 145.056,55.712 C145.600003,55.712 145.963999,55.6000011 146.148,55.376 C146.332001,55.1519989 146.424,54.7120033 146.424,54.056 L146.424,49.472 C146.424,48.9599974 146.364001,48.5880012 146.244,48.356 C146.123999,48.1239988 145.928001,48.008 145.656,48.008 C145.383999,48.008 144.976003,48.1199989 144.432,48.344 L144.408,48.344 C144.344,48.344 144.3,48.3040004 144.276,48.224 C144.252,48.1439996 144.264,48.0960001 144.312,48.08 L147.48,46.544 C147.544,46.5119998 147.592,46.496 147.624,46.496 C147.800001,46.496 147.963999,46.6719982 148.116,47.024 C148.268001,47.3760018 148.352,47.847997 148.368,48.44 C149.488006,47.1119934 150.711993,46.448 152.04,46.448 C152.904004,46.448 153.583998,46.7159973 154.08,47.252 C154.576002,47.7880027 154.824,48.5119954 154.824,49.424 L154.824,54.056 C154.824,54.7120033 154.915999,55.1519989 155.1,55.376 C155.284001,55.6000011 155.647997,55.712 156.192,55.712 C156.256,55.712 156.288,55.7599995 156.288,55.856 L156.288,55.856 Z M164.916,55.304 C165.484003,55.3840004 165.979998,55.6079982 166.404,55.976 C166.828002,56.3440018 167.04,56.9119962 167.04,57.68 C167.04,58.5760045 166.764003,59.4119961 166.212,60.188 C165.659997,60.9640039 164.920005,61.5839977 163.992,62.048 C163.063995,62.5120023 162.072005,62.744 161.016,62.744 C159.911994,62.744 159.016003,62.4960025 158.328,62 C157.639997,61.5039975 157.296,60.856004 157.296,60.056 C157.296,58.9359944 158.119992,57.8240055 159.768,56.72 C159.191997,56.6079994 158.748002,56.4240013 158.436,56.168 C158.123998,55.9119987 157.968,55.5280026 157.968,55.016 C157.968,54.0719953 158.535994,53.2080039 159.672,52.424 C159.079997,52.1519986 158.620002,51.7600026 158.292,51.248 C157.963998,50.7359974 157.8,50.1920029 157.8,49.616 C157.8,48.9919969 157.991998,48.4480023 158.376,47.984 C158.760002,47.5199977 159.259997,47.1680012 159.876,46.928 C160.492003,46.6879988 161.151996,46.568 161.856,46.568 C162.880005,46.568 163.727997,46.8239974 164.4,47.336 C164.848002,47.0639986 165.275998,46.8560007 165.684,46.712 C166.092002,46.5679993 166.527998,46.496 166.992,46.496 C167.120001,46.496 167.184,46.7039979 167.184,47.12 C167.184,47.3600012 167.156,47.5959988 167.1,47.828 C167.044,48.0600012 166.984,48.1600002 166.92,48.128 C166.327997,47.8719987 165.752003,47.744 165.192,47.744 C165.047999,47.744 164.936,47.7519999 164.856,47.768 C165.336002,48.2640025 165.576,48.8719964 165.576,49.592 C165.576,50.2160031 165.384002,50.7719976 165,51.26 C164.615998,51.7480024 164.112003,52.1279986 163.488,52.4 C162.863997,52.6720014 162.200004,52.808 161.496,52.808 C160.951997,52.808 160.472002,52.7280008 160.056,52.568 C159.703998,52.9200018 159.528,53.3199978 159.528,53.768 C159.528,54.3440029 159.759998,54.7159992 160.224,54.884 C160.688002,55.0520008 161.503994,55.1439999 162.672,55.16 C163.600005,55.1760001 164.347997,55.2239996 164.916,55.304 L164.916,55.304 Z M160.176,47.48 C159.951999,47.8160017 159.84,48.3039968 159.84,48.944 C159.84,49.6320034 159.947999,50.2359974 160.164,50.756 C160.380001,51.2760026 160.659998,51.6799986 161.004,51.968 C161.348002,52.2560014 161.703998,52.4 162.072,52.4 C162.488002,52.4 162.831999,52.2240018 163.104,51.872 C163.376001,51.5199982 163.512,50.9680038 163.512,50.216 C163.512,49.5439966 163.396001,48.9600025 163.164,48.464 C162.931999,47.9679975 162.632002,47.5960012 162.264,47.348 C161.895998,47.0999988 161.520002,46.976 161.136,46.976 C160.719998,46.976 160.400001,47.1439983 160.176,47.48 L160.176,47.48 Z M164.484,61.196 C165.036003,60.6599973 165.312,59.9360046 165.312,59.024 C165.312,58.3519966 165.164001,57.8600016 164.868,57.548 C164.571999,57.2359984 164.184002,57.0440004 163.704,56.972 C163.223998,56.8999996 162.528005,56.8560001 161.616,56.84 C161.295998,56.84 160.864003,56.8240002 160.32,56.792 C159.567996,57.3040026 159.192,58.0239954 159.192,58.952 C159.192,59.9120048 159.483997,60.6599973 160.068,61.196 C160.652003,61.7320027 161.391996,62 162.288,62 C163.200005,62 163.931997,61.7320027 164.484,61.196 L164.484,61.196 Z" id="Ina-&amp;-Jonas-auf-Reis"></path>
        </g>
    </g>
</svg>