<?xml version="1.0" encoding="UTF-8" standalone="no"?>
<svg width="186px" height="63px" viewBox="0 0 186 63" version="1.1" xmlns="http://www.w3.org/2000/svg" xmlns:xlink="http://www.w3.org/1999/xlink">
    <!-- Generator: Sketch 39.1 (31720) - http://www.bohemiancoding.com/sketch -->
    <title>Group</title>
    <desc>Created with Sketch.</desc>
    <defs></defs>
    <g id="Page-1" stroke="none" stroke-width="1" fill="none" fill-rule="evenodd">
        <g id="Group" fill="#000000">
            <g id="logo-backpackers">
                <path d="M8.68592308,40.2192368 L14.2226538,40.2192368 L14.2226538,58.4007368 C14.2226538,59.9450263 12.9828462,61.1972632 11.4538846,61.1972632 C9.92573077,61.1972632 8.68592308,59.9450263 8.68592308,58.4007368 L8.68592308,40.2192368 L8.68592308,40.2192368 Z M15.6070385,58.4007368 C15.6070385,59.9450263 16.8468462,61.1972632 18.3766154,61.1972632 C19.9047692,61.1972632 21.1453846,59.9450263 21.1453846,58.4007368 L21.1453846,40.2192368 L15.6070385,40.2192368 L15.6070385,58.4007368 L15.6070385,58.4007368 Z M6.80884615,32.6666579 C6.27253846,32.3354474 5.9115,31.744 5.9115,31.0628158 C5.9115,30.0691842 6.67557692,29.2631842 7.64157692,29.1922105 C8.39676923,26.0383684 9.24,22.5133421 9.9015,19.7445526 L6.42519231,19.7445526 C5.397,19.7445526 4.56265385,20.5880789 4.56265385,21.6282105 L4.56265385,23.3813421 L0.694615385,27.3599474 C0.228576923,27.8396316 0.0387692308,28.5273421 0.190615385,29.1807895 C0.343269231,29.8350526 0.817384615,30.3653158 1.44657692,30.5831316 L4.56184615,31.6656842 L4.56184615,33.9939474 C4.56184615,34.9035526 5.19911538,35.6622368 6.04557692,35.8400789 C6.237,35.0503947 6.50030769,33.9539737 6.80884615,32.6666579 L6.80884615,32.6666579 Z M14.9140385,18.0003947 C18.3548077,18.0003947 21.1453846,15.1826579 21.1453846,11.7073947 C21.1453846,8.23213158 18.3548077,5.41439474 14.9140385,5.41439474 C11.4732692,5.41439474 8.68269231,8.23213158 8.68269231,11.7073947 C8.6835,15.1834737 11.4732692,18.0003947 14.9140385,18.0003947 L14.9140385,18.0003947 Z M21.7487308,32.9171053 C20.8618846,32.7718947 20.1834231,31.9993421 20.1834231,31.0636316 C20.1834231,30.4436316 20.4838846,29.8970526 20.9418462,29.5536053 C20.3360769,27.0271053 19.5396923,23.6937895 18.4937308,19.3138158 C17.4259615,18.8871579 16.212,18.6611842 14.9148462,18.6611842 L14.9148462,18.662 L14.9140385,18.6611842 C13.6168846,18.6611842 12.4021154,18.8871579 11.3335385,19.3146316 C10.2875769,23.6937895 9.49038462,27.0271053 8.88542308,29.5536053 C9.34338462,29.8970526 9.64384615,30.4428158 9.64384615,31.0636316 C9.64384615,31.9993421 8.96538462,32.7727105 8.07853846,32.9171053 C7.71103846,34.4467105 7.46630769,35.4631842 7.29911538,36.1533421 L7.29911538,38.8217895 L22.5289615,38.8217895 L22.5289615,36.1590526 C22.3625769,35.4697105 22.1170385,34.4507895 21.7487308,32.9171053 L21.7487308,32.9171053 Z M29.1366923,27.3599474 L25.7605385,23.8879474 L25.7605385,21.6282105 C25.7605385,20.5880789 24.927,19.7445526 23.8988077,19.7445526 L19.9273846,19.7445526 C20.5888846,22.5133421 21.4321154,26.0375526 22.1865,29.1913947 C23.1533077,29.2631842 23.9173846,30.0683684 23.9173846,31.0628158 C23.9173846,31.744 23.5563462,32.3354474 23.0200385,32.6666579 C23.3334231,33.976 23.6007692,35.0871053 23.7913846,35.8792368 L23.8996154,35.8792368 C24.9278077,35.8792368 25.7613462,35.0389737 25.7613462,33.9955789 L25.7613462,31.496 L28.3847308,30.5847632 C29.0131154,30.3653158 29.4880385,29.8366842 29.6406923,29.1824211 C29.7925385,28.5273421 29.6027308,27.8388158 29.1366923,27.3599474 L29.1366923,27.3599474 Z" id="Shape"></path>
                <path d="M53.3537308,31.0628158 C53.3537308,32.0107632 54.0475385,32.7857632 54.9473077,32.9195526 L58.2725769,46.7227105 L37.8904615,46.7227105 L41.2189615,32.9195526 C42.1195385,32.7841316 42.8125385,32.0107632 42.8125385,31.0628158 C42.8125385,30.4338421 42.5048077,29.8807368 42.0363462,29.5381053 L44.5006154,19.3154474 C45.5691923,18.8871579 46.7855769,18.6611842 48.0819231,18.6611842 C49.3831154,18.6611842 50.5978846,18.8879737 51.6656538,19.3154474 L54.1323462,29.5372895 C53.6614615,29.8791053 53.3537308,30.4338421 53.3537308,31.0628158 L53.3537308,31.0628158 Z M41.0235,10.5832368 C41.4144231,10.5065526 41.7568846,10.3254474 42.0694615,10.0831579 C41.9321538,10.602 41.8513846,11.1445 41.8513846,11.7073947 C41.8513846,15.1834737 44.6419615,18.0003947 48.0827308,18.0003947 C51.5251154,18.0003947 54.3156923,15.1826579 54.3156923,11.7073947 C54.3156923,8.23213158 51.5251154,5.41439474 48.0827308,5.41439474 C46.7500385,5.41439474 45.5142692,5.84186842 44.4998077,6.56384211 C45.1580769,5.45355263 45.8801538,4.51131579 46.9487308,4.37344737 C48.0803077,4.22660526 49.1803846,4.35957895 49.1803846,4.35957895 C49.6084615,3.16852632 48.3508846,-0.0603684211 44.4521538,1.02136842 C40.887,2.01092105 41.202,4.52926316 41.6252308,6.23997368 C42.0137308,7.80628947 41.4281538,8.78605263 40.1301923,9.07810526 C38.8330385,9.36934211 37.9138846,7.92213158 37.863,7.18057895 C36.9850385,8.15952632 38.2692692,11.1265526 41.0235,10.5832368 L41.0235,10.5832368 Z M37.7313462,33.9955789 C37.7313462,34.8962105 38.3540769,35.6442895 39.1892308,35.8311053 L39.9557308,32.6536053 C39.4323462,32.3207632 39.0818077,31.7342105 39.0818077,31.062 C39.0818077,30.0757105 39.8345769,29.2754211 40.7900769,29.1930263 L43.0661538,19.7437368 L39.5930769,19.7437368 C38.5665,19.7437368 37.7313462,20.5872632 37.7313462,21.6273947 L37.7313462,23.3805263 L33.8633077,27.3591316 C33.3980769,27.8388158 33.2074615,28.5265263 33.3601154,29.1799737 C33.5119615,29.8342368 33.9876923,30.3645 34.6176923,30.5823158 L37.7313462,31.6665 L37.7313462,33.9955789 L37.7313462,33.9955789 Z M41.8513846,48.1201579 L41.8513846,58.4007368 C41.8513846,59.9450263 43.0911923,61.1972632 44.6209615,61.1972632 C46.1523462,61.1972632 47.3913462,59.9450263 47.3913462,58.4007368 L47.3913462,48.1201579 L41.8546154,48.1201579 L41.8513846,48.1201579 L41.8513846,48.1201579 Z M62.3061923,27.3599474 L58.9300385,23.8879474 L58.9300385,21.6282105 C58.9300385,20.5880789 58.0973077,19.7445526 57.0666923,19.7445526 L53.0993077,19.7445526 L55.377,29.1938421 C56.3349231,29.2762368 57.0844615,30.0765263 57.0844615,31.0628158 C57.0844615,31.7342105 56.7339231,32.3207632 56.2113462,32.6536053 L56.9891538,35.8767895 L57.0666923,35.8767895 C58.0940769,35.8767895 58.9300385,35.0365263 58.9300385,33.9931316 L58.9300385,31.4935526 L61.5534231,30.5831316 C62.181,30.3645 62.6559231,29.8350526 62.8093846,29.1807895 C62.9620385,28.5273421 62.7730385,27.8388158 62.3061923,27.3599474 L62.3061923,27.3599474 Z M48.7789615,58.4007368 L48.7773462,58.4007368 C48.7773462,59.9450263 50.0171538,61.1972632 51.5461154,61.1972632 C53.0758846,61.1972632 54.3173077,59.9450263 54.3173077,58.4007368 L54.3173077,48.1201579 L48.7797692,48.1201579 L48.7797692,58.4007368 L48.7789615,58.4007368 Z" id="Shape"></path>
            </g>
            <text id="Ina-&amp;-Jonas-travelli" font-family="CormorantGaramond-SemiBold, Cormorant Garamond" font-size="24" font-weight="500" line-spacing="32">
                <tspan x="78" y="22">Ina &amp; Jonas</tspan>
                <tspan x="78" y="54">travelling</tspan>
            </text>
        </g>
    </g>
</svg>