<?xml version="1.0" encoding="UTF-8" standalone="no"?>
<svg width="215px" height="62px" viewBox="0 0 215 62" version="1.1" xmlns="http://www.w3.org/2000/svg" xmlns:xlink="http://www.w3.org/1999/xlink">
    <!-- Generator: Sketch 39.1 (31720) - http://www.bohemiancoding.com/sketch -->
    <title>Group</title>
    <desc>Created with Sketch.</desc>
    <defs></defs>
    <g id="Page-1" stroke="none" stroke-width="1" fill="none" fill-rule="evenodd">
        <g id="Group" fill="#000000">
            <g id="logo-backpackers">
                <path d="M8.68592308,40.2192368 L14.2226538,40.2192368 L14.2226538,58.4007368 C14.2226538,59.9450263 12.9828462,61.1972632 11.4538846,61.1972632 C9.92573077,61.1972632 8.68592308,59.9450263 8.68592308,58.4007368 L8.68592308,40.2192368 L8.68592308,40.2192368 Z M15.6070385,58.4007368 C15.6070385,59.9450263 16.8468462,61.1972632 18.3766154,61.1972632 C19.9047692,61.1972632 21.1453846,59.9450263 21.1453846,58.4007368 L21.1453846,40.2192368 L15.6070385,40.2192368 L15.6070385,58.4007368 L15.6070385,58.4007368 Z M6.80884615,32.6666579 C6.27253846,32.3354474 5.9115,31.744 5.9115,31.0628158 C5.9115,30.0691842 6.67557692,29.2631842 7.64157692,29.1922105 C8.39676923,26.0383684 9.24,22.5133421 9.9015,19.7445526 L6.42519231,19.7445526 C5.397,19.7445526 4.56265385,20.5880789 4.56265385,21.6282105 L4.56265385,23.3813421 L0.694615385,27.3599474 C0.228576923,27.8396316 0.0387692308,28.5273421 0.190615385,29.1807895 C0.343269231,29.8350526 0.817384615,30.3653158 1.44657692,30.5831316 L4.56184615,31.6656842 L4.56184615,33.9939474 C4.56184615,34.9035526 5.19911538,35.6622368 6.04557692,35.8400789 C6.237,35.0503947 6.50030769,33.9539737 6.80884615,32.6666579 L6.80884615,32.6666579 Z M14.9140385,18.0003947 C18.3548077,18.0003947 21.1453846,15.1826579 21.1453846,11.7073947 C21.1453846,8.23213158 18.3548077,5.41439474 14.9140385,5.41439474 C11.4732692,5.41439474 8.68269231,8.23213158 8.68269231,11.7073947 C8.6835,15.1834737 11.4732692,18.0003947 14.9140385,18.0003947 L14.9140385,18.0003947 Z M21.7487308,32.9171053 C20.8618846,32.7718947 20.1834231,31.9993421 20.1834231,31.0636316 C20.1834231,30.4436316 20.4838846,29.8970526 20.9418462,29.5536053 C20.3360769,27.0271053 19.5396923,23.6937895 18.4937308,19.3138158 C17.4259615,18.8871579 16.212,18.6611842 14.9148462,18.6611842 L14.9148462,18.662 L14.9140385,18.6611842 C13.6168846,18.6611842 12.4021154,18.8871579 11.3335385,19.3146316 C10.2875769,23.6937895 9.49038462,27.0271053 8.88542308,29.5536053 C9.34338462,29.8970526 9.64384615,30.4428158 9.64384615,31.0636316 C9.64384615,31.9993421 8.96538462,32.7727105 8.07853846,32.9171053 C7.71103846,34.4467105 7.46630769,35.4631842 7.29911538,36.1533421 L7.29911538,38.8217895 L22.5289615,38.8217895 L22.5289615,36.1590526 C22.3625769,35.4697105 22.1170385,34.4507895 21.7487308,32.9171053 L21.7487308,32.9171053 Z M29.1366923,27.3599474 L25.7605385,23.8879474 L25.7605385,21.6282105 C25.7605385,20.5880789 24.927,19.7445526 23.8988077,19.7445526 L19.9273846,19.7445526 C20.5888846,22.5133421 21.4321154,26.0375526 22.1865,29.1913947 C23.1533077,29.2631842 23.9173846,30.0683684 23.9173846,31.0628158 C23.9173846,31.744 23.5563462,32.3354474 23.0200385,32.6666579 C23.3334231,33.976 23.6007692,35.0871053 23.7913846,35.8792368 L23.8996154,35.8792368 C24.9278077,35.8792368 25.7613462,35.0389737 25.7613462,33.9955789 L25.7613462,31.496 L28.3847308,30.5847632 C29.0131154,30.3653158 29.4880385,29.8366842 29.6406923,29.1824211 C29.7925385,28.5273421 29.6027308,27.8388158 29.1366923,27.3599474 L29.1366923,27.3599474 Z" id="Shape"></path>
                <path d="M53.3537308,31.0628158 C53.3537308,32.0107632 54.0475385,32.7857632 54.9473077,32.9195526 L58.2725769,46.7227105 L37.8904615,46.7227105 L41.2189615,32.9195526 C42.1195385,32.7841316 42.8125385,32.0107632 42.8125385,31.0628158 C42.8125385,30.4338421 42.5048077,29.8807368 42.0363462,29.5381053 L44.5006154,19.3154474 C45.5691923,18.8871579 46.7855769,18.6611842 48.0819231,18.6611842 C49.3831154,18.6611842 50.5978846,18.8879737 51.6656538,19.3154474 L54.1323462,29.5372895 C53.6614615,29.8791053 53.3537308,30.4338421 53.3537308,31.0628158 L53.3537308,31.0628158 Z M41.0235,10.5832368 C41.4144231,10.5065526 41.7568846,10.3254474 42.0694615,10.0831579 C41.9321538,10.602 41.8513846,11.1445 41.8513846,11.7073947 C41.8513846,15.1834737 44.6419615,18.0003947 48.0827308,18.0003947 C51.5251154,18.0003947 54.3156923,15.1826579 54.3156923,11.7073947 C54.3156923,8.23213158 51.5251154,5.41439474 48.0827308,5.41439474 C46.7500385,5.41439474 45.5142692,5.84186842 44.4998077,6.56384211 C45.1580769,5.45355263 45.8801538,4.51131579 46.9487308,4.37344737 C48.0803077,4.22660526 49.1803846,4.35957895 49.1803846,4.35957895 C49.6084615,3.16852632 48.3508846,-0.0603684211 44.4521538,1.02136842 C40.887,2.01092105 41.202,4.52926316 41.6252308,6.23997368 C42.0137308,7.80628947 41.4281538,8.78605263 40.1301923,9.07810526 C38.8330385,9.36934211 37.9138846,7.92213158 37.863,7.18057895 C36.9850385,8.15952632 38.2692692,11.1265526 41.0235,10.5832368 L41.0235,10.5832368 Z M37.7313462,33.9955789 C37.7313462,34.8962105 38.3540769,35.6442895 39.1892308,35.8311053 L39.9557308,32.6536053 C39.4323462,32.3207632 39.0818077,31.7342105 39.0818077,31.062 C39.0818077,30.0757105 39.8345769,29.2754211 40.7900769,29.1930263 L43.0661538,19.7437368 L39.5930769,19.7437368 C38.5665,19.7437368 37.7313462,20.5872632 37.7313462,21.6273947 L37.7313462,23.3805263 L33.8633077,27.3591316 C33.3980769,27.8388158 33.2074615,28.5265263 33.3601154,29.1799737 C33.5119615,29.8342368 33.9876923,30.3645 34.6176923,30.5823158 L37.7313462,31.6665 L37.7313462,33.9955789 L37.7313462,33.9955789 Z M41.8513846,48.1201579 L41.8513846,58.4007368 C41.8513846,59.9450263 43.0911923,61.1972632 44.6209615,61.1972632 C46.1523462,61.1972632 47.3913462,59.9450263 47.3913462,58.4007368 L47.3913462,48.1201579 L41.8546154,48.1201579 L41.8513846,48.1201579 L41.8513846,48.1201579 Z M62.3061923,27.3599474 L58.9300385,23.8879474 L58.9300385,21.6282105 C58.9300385,20.5880789 58.0973077,19.7445526 57.0666923,19.7445526 L53.0993077,19.7445526 L55.377,29.1938421 C56.3349231,29.2762368 57.0844615,30.0765263 57.0844615,31.0628158 C57.0844615,31.7342105 56.7339231,32.3207632 56.2113462,32.6536053 L56.9891538,35.8767895 L57.0666923,35.8767895 C58.0940769,35.8767895 58.9300385,35.0365263 58.9300385,33.9931316 L58.9300385,31.4935526 L61.5534231,30.5831316 C62.181,30.3645 62.6559231,29.8350526 62.8093846,29.1807895 C62.9620385,28.5273421 62.7730385,27.8388158 62.3061923,27.3599474 L62.3061923,27.3599474 Z M48.7789615,58.4007368 L48.7773462,58.4007368 C48.7773462,59.9450263 50.0171538,61.1972632 51.5461154,61.1972632 C53.0758846,61.1972632 54.3173077,59.9450263 54.3173077,58.4007368 L54.3173077,48.1201579 L48.7797692,48.1201579 L48.7797692,58.4007368 L48.7789615,58.4007368 Z" id="Shape"></path>
            </g>
            <path d="M79.6757812,26 L79.6757812,9.1953125 L83.953125,9.1953125 L83.953125,26 L79.6757812,26 Z M99.1933594,14.2285156 C100.056645,15.1308639 100.488281,16.33593 100.488281,17.84375 L100.488281,26 L96.3515625,26 L96.3515625,18.9921875 C96.3515625,18.2421838 96.1484395,17.6464866 95.7421875,17.2050781 C95.3359355,16.7636697 94.7812535,16.5429688 94.078125,16.5429688 C93.3437463,16.5429688 92.7402367,16.7832007 92.2675781,17.2636719 C91.7949195,17.744143 91.5195316,18.3749961 91.4414062,19.15625 L91.4414062,26 L87.28125,26 L87.28125,13.0625 L91.4414062,13.0625 L91.4414062,15.171875 C92.3554733,13.664055 93.7929589,12.8984376 95.7539062,12.875 C97.1836009,12.875 98.3300738,13.3261674 99.1933594,14.2285156 L99.1933594,14.2285156 Z M113.378906,14.1113281 C114.363286,14.935551 114.863281,16.0820239 114.878906,17.5507812 L114.878906,26 L110.824219,26 L110.824219,24.5117188 C110.410154,25.0585965 109.867191,25.4746079 109.195312,25.7597656 C108.523434,26.0449233 107.746098,26.1875 106.863281,26.1875 C105.503899,26.1875 104.423832,25.8125037 103.623047,25.0625 C102.822262,24.3124963 102.421875,23.3359435 102.421875,22.1328125 C102.421875,20.8984313 102.849605,19.9414096 103.705078,19.2617188 C104.560551,18.5820279 105.789054,18.2343751 107.390625,18.21875 L110.800781,18.21875 L110.800781,18.03125 C110.800781,17.3906218 110.589846,16.8906268 110.167969,16.53125 C109.746092,16.1718732 109.117192,15.9921875 108.28125,15.9921875 C107.734372,15.9921875 107.121097,16.0839835 106.441406,16.2675781 C105.761715,16.4511728 105.085941,16.7187482 104.414062,17.0703125 L103.242188,14.3398438 C104.29688,13.8476538 105.300776,13.48047 106.253906,13.2382812 C107.207036,12.9960925 108.20312,12.875 109.242188,12.875 C111.015634,12.875 112.394526,13.2871053 113.378906,14.1113281 L113.378906,14.1113281 Z M109.869141,22.8945312 C110.365237,22.5664046 110.675781,22.1367214 110.800781,21.6054688 L110.800781,20.4570312 L108.1875,20.4570312 C107.562497,20.4570312 107.093752,20.5683583 106.78125,20.7910156 C106.468748,21.013673 106.3125,21.3671851 106.3125,21.8515625 C106.3125,22.3281274 106.472655,22.7031236 106.792969,22.9765625 C107.113283,23.2500014 107.562497,23.3867188 108.140625,23.3867188 C108.796878,23.3867188 109.373044,23.2226579 109.869141,22.8945312 L109.869141,22.8945312 Z M133.546875,24.4179688 C132.843746,24.9960966 132.087895,25.4355454 131.279297,25.7363281 C130.470699,26.0371109 129.632817,26.1875 128.765625,26.1875 C127.679682,26.1875 126.705082,25.9804708 125.841797,25.5664062 C124.978511,25.1523417 124.298831,24.5722694 123.802734,23.8261719 C123.306638,23.0800744 123.058594,22.2382859 123.058594,21.3007812 C123.058594,20.2773386 123.353513,19.4160191 123.943359,18.7167969 C124.533206,18.0175746 125.347651,17.3828154 126.386719,16.8125 C125.894529,16.0937464 125.535157,15.437503 125.308594,14.84375 C125.08203,14.249997 124.96875,13.6484405 124.96875,13.0390625 C124.96875,11.8046813 125.406246,10.8242224 126.28125,10.0976562 C127.156254,9.37109012 128.320305,9.0078125 129.773438,9.0078125 C130.70313,9.0078125 131.531246,9.16796715 132.257812,9.48828125 C132.984379,9.80859535 133.552732,10.2519503 133.962891,10.8183594 C134.373049,11.3847685 134.578125,12.0390588 134.578125,12.78125 C134.578125,13.8359428 134.230472,14.7070278 133.535156,15.3945312 C132.83984,16.0820347 131.867194,16.7460905 130.617188,17.3867188 C131.468754,18.3164109 132.355464,19.2343705 133.277344,20.140625 C133.738284,19.343746 134.11328,18.4492237 134.402344,17.4570312 L137.050781,19.3320312 C136.652342,20.4179742 136.140628,21.4101518 135.515625,22.3085938 L138.011719,24.6757812 L135.914062,26.7148438 L133.546875,24.4179688 Z M129.082031,15.4179688 C129.800785,15.0195293 130.355467,14.6152364 130.746094,14.2050781 C131.136721,13.7949198 131.332031,13.3281276 131.332031,12.8046875 C131.332031,12.3749979 131.193361,12.0234389 130.916016,11.75 C130.63867,11.4765611 130.27344,11.3398438 129.820312,11.3398438 C129.328123,11.3398438 128.937501,11.4999984 128.648438,11.8203125 C128.359374,12.1406266 128.214844,12.5468725 128.214844,13.0390625 C128.214844,13.742191 128.503903,14.5351518 129.082031,15.4179688 L129.082031,15.4179688 Z M131.425781,22.3554688 C129.73046,20.6601478 128.589847,19.4765659 128.003906,18.8046875 C127.511716,19.1406267 127.126955,19.4843732 126.849609,19.8359375 C126.572264,20.1875018 126.433594,20.5781229 126.433594,21.0078125 C126.433594,21.6796909 126.66992,22.2285135 127.142578,22.6542969 C127.615237,23.0800803 128.210934,23.2929688 128.929688,23.2929688 C129.796879,23.2929688 130.628902,22.9804719 131.425781,22.3554688 L131.425781,22.3554688 Z M153.65625,24.6992188 C152.624995,25.6914112 151.203134,26.1875 149.390625,26.1875 C147.101551,26.1875 145.175789,25.2929777 143.613281,23.5039062 L145.582031,20.6445312 C146.160159,21.2539093 146.763669,21.7187484 147.392578,22.0390625 C148.021488,22.3593766 148.593747,22.5195312 149.109375,22.5195312 C149.687503,22.5195312 150.130858,22.3437518 150.439453,21.9921875 C150.748048,21.6406232 150.902344,21.1289096 150.902344,20.4570312 L150.902344,12.6289062 L145.148438,12.6289062 L145.148438,9.171875 L155.203125,9.171875 L155.203125,20.5507812 C155.203125,22.3242276 154.687505,23.7070263 153.65625,24.6992188 L153.65625,24.6992188 Z M167.935547,13.7363281 C169.009771,14.2792996 169.837888,15.0507762 170.419922,16.0507812 C171.001956,17.0507863 171.292969,18.2070247 171.292969,19.5195312 C171.292969,20.8320378 171.001956,21.9882762 170.419922,22.9882812 C169.837888,23.9882863 169.009771,24.7636691 167.935547,25.3144531 C166.861323,25.8652371 165.628913,26.140625 164.238281,26.140625 C162.832024,26.140625 161.597662,25.8652371 160.535156,25.3144531 C159.472651,24.7636691 158.644534,23.9882863 158.050781,22.9882812 C157.457028,21.9882762 157.160156,20.8320378 157.160156,19.5195312 C157.160156,18.2070247 157.457028,17.0507863 158.050781,16.0507812 C158.644534,15.0507762 159.472651,14.2792996 160.535156,13.7363281 C161.597662,13.1933567 162.832024,12.921875 164.238281,12.921875 C165.628913,12.921875 166.861323,13.1933567 167.935547,13.7363281 L167.935547,13.7363281 Z M162.146484,17.140625 C161.611325,17.7656281 161.34375,18.5742138 161.34375,19.5664062 C161.34375,20.5742238 161.611325,21.3867157 162.146484,22.0039062 C162.681643,22.6210968 163.378902,22.9296875 164.238281,22.9296875 C165.089848,22.9296875 165.7832,22.6210968 166.318359,22.0039062 C166.853518,21.3867157 167.121094,20.5742238 167.121094,19.5664062 C167.121094,18.5742138 166.853518,17.7656281 166.318359,17.140625 C165.7832,16.5156219 165.089848,16.203125 164.238281,16.203125 C163.378902,16.203125 162.681643,16.5156219 162.146484,17.140625 L162.146484,17.140625 Z M185.431641,14.2285156 C186.294926,15.1308639 186.726562,16.33593 186.726562,17.84375 L186.726562,26 L182.589844,26 L182.589844,18.9921875 C182.589844,18.2421838 182.386721,17.6464866 181.980469,17.2050781 C181.574217,16.7636697 181.019535,16.5429688 180.316406,16.5429688 C179.582028,16.5429688 178.978518,16.7832007 178.505859,17.2636719 C178.033201,17.744143 177.757813,18.3749961 177.679688,19.15625 L177.679688,26 L173.519531,26 L173.519531,13.0625 L177.679688,13.0625 L177.679688,15.171875 C178.593755,13.664055 180.03124,12.8984376 181.992188,12.875 C183.421882,12.875 184.568355,13.3261674 185.431641,14.2285156 L185.431641,14.2285156 Z M199.617188,14.1113281 C200.601567,14.935551 201.101562,16.0820239 201.117188,17.5507812 L201.117188,26 L197.0625,26 L197.0625,24.5117188 C196.648435,25.0585965 196.105472,25.4746079 195.433594,25.7597656 C194.761715,26.0449233 193.984379,26.1875 193.101562,26.1875 C191.742181,26.1875 190.662113,25.8125037 189.861328,25.0625 C189.060543,24.3124963 188.660156,23.3359435 188.660156,22.1328125 C188.660156,20.8984313 189.087886,19.9414096 189.943359,19.2617188 C190.798832,18.5820279 192.027336,18.2343751 193.628906,18.21875 L197.039062,18.21875 L197.039062,18.03125 C197.039062,17.3906218 196.828127,16.8906268 196.40625,16.53125 C195.984373,16.1718732 195.355473,15.9921875 194.519531,15.9921875 C193.972654,15.9921875 193.359378,16.0839835 192.679688,16.2675781 C191.999997,16.4511728 191.324222,16.7187482 190.652344,17.0703125 L189.480469,14.3398438 C190.535162,13.8476538 191.539058,13.48047 192.492188,13.2382812 C193.445317,12.9960925 194.441401,12.875 195.480469,12.875 C197.253915,12.875 198.632808,13.2871053 199.617188,14.1113281 L199.617188,14.1113281 Z M196.107422,22.8945312 C196.603518,22.5664046 196.914062,22.1367214 197.039062,21.6054688 L197.039062,20.4570312 L194.425781,20.4570312 C193.800778,20.4570312 193.332033,20.5683583 193.019531,20.7910156 C192.70703,21.013673 192.550781,21.3671851 192.550781,21.8515625 C192.550781,22.3281274 192.710936,22.7031236 193.03125,22.9765625 C193.351564,23.2500014 193.800778,23.3867188 194.378906,23.3867188 C195.03516,23.3867188 195.611326,23.2226579 196.107422,22.8945312 L196.107422,22.8945312 Z M211.453125,13.2558594 C212.367192,13.5097669 213.222652,13.8710914 214.019531,14.3398438 L212.601562,17.0234375 C210.999992,16.1562457 209.640631,15.7226562 208.523438,15.7226562 C208.140623,15.7226562 207.833986,15.7988274 207.603516,15.9511719 C207.373046,16.1035164 207.257812,16.3242173 207.257812,16.6132812 C207.257812,16.9179703 207.433592,17.1621085 207.785156,17.3457031 C208.136721,17.5292978 208.710934,17.7343739 209.507812,17.9609375 C210.42188,18.2187513 211.183591,18.4785143 211.792969,18.7402344 C212.402347,19.0019544 212.929685,19.4003879 213.375,19.9355469 C213.820315,20.4707058 214.042969,21.1640582 214.042969,22.015625 C214.042969,23.3125065 213.539068,24.3281213 212.53125,25.0625 C211.523432,25.7968787 210.210946,26.1640625 208.59375,26.1640625 C207.507807,26.1640625 206.460943,26.0078141 205.453125,25.6953125 C204.445307,25.3828109 203.558598,24.9335967 202.792969,24.3476562 L204.105469,21.6992188 C204.824222,22.2148463 205.587887,22.6132798 206.396484,22.8945312 C207.205082,23.1757827 207.972653,23.3164062 208.699219,23.3164062 C209.128908,23.3164062 209.470702,23.2402351 209.724609,23.0878906 C209.978517,22.9355461 210.105469,22.7148452 210.105469,22.4257812 C210.105469,22.0898421 209.921877,21.8261728 209.554688,21.6347656 C209.187498,21.4433584 208.613285,21.2343761 207.832031,21.0078125 C206.933589,20.7499987 206.189456,20.4902357 205.599609,20.2285156 C205.009763,19.9667956 204.501955,19.5761745 204.076172,19.0566406 C203.650388,18.5371068 203.4375,17.8515668 203.4375,17 C203.4375,15.7031185 203.925776,14.6914099 204.902344,13.9648438 C205.878911,13.2382776 207.144523,12.875 208.699219,12.875 C209.621098,12.875 210.539058,13.0019519 211.453125,13.2558594 L211.453125,13.2558594 Z M89.6015625,46.1113281 C90.5859424,46.935551 91.0859374,48.0820239 91.1015625,49.5507812 L91.1015625,58 L87.046875,58 L87.046875,56.5117188 C86.6328104,57.0585965 86.0898471,57.4746079 85.4179688,57.7597656 C84.7460904,58.0449233 83.9687544,58.1875 83.0859375,58.1875 C81.7265557,58.1875 80.6464884,57.8125037 79.8457031,57.0625 C79.0449179,56.3124963 78.6445312,55.3359435 78.6445312,54.1328125 C78.6445312,52.8984313 79.0722613,51.9414096 79.9277344,51.2617188 C80.7832074,50.5820279 82.0117107,50.2343751 83.6132812,50.21875 L87.0234375,50.21875 L87.0234375,50.03125 C87.0234375,49.3906218 86.8125021,48.8906268 86.390625,48.53125 C85.9687479,48.1718732 85.3398479,47.9921875 84.5039062,47.9921875 C83.9570285,47.9921875 83.3437534,48.0839835 82.6640625,48.2675781 C81.9843716,48.4511728 81.3085971,48.7187482 80.6367188,49.0703125 L79.4648438,46.3398438 C80.5195365,45.8476538 81.5234327,45.48047 82.4765625,45.2382812 C83.4296923,44.9960925 84.4257761,44.875 85.4648438,44.875 C87.2382901,44.875 88.6171826,45.2871053 89.6015625,46.1113281 L89.6015625,46.1113281 Z M86.0917969,54.8945312 C86.5878931,54.5664046 86.8984369,54.1367214 87.0234375,53.6054688 L87.0234375,52.4570312 L84.4101562,52.4570312 C83.7851531,52.4570312 83.3164078,52.5683583 83.0039062,52.7910156 C82.6914047,53.013673 82.5351562,53.3671851 82.5351562,53.8515625 C82.5351562,54.3281274 82.6953109,54.7031236 83.015625,54.9765625 C83.3359391,55.2500014 83.7851534,55.3867188 84.3632812,55.3867188 C85.0195345,55.3867188 85.5957006,55.2226579 86.0917969,54.8945312 L86.0917969,54.8945312 Z M106.652344,58 L102.492188,58 L102.492188,55.8671875 C101.609371,57.4062577 100.210947,58.171875 98.296875,58.1640625 C96.890618,58.1640625 95.7675823,57.7168013 94.9277344,56.8222656 C94.0878864,55.9277299 93.6679688,54.72657 93.6679688,53.21875 L93.6679688,45.0625 L97.8164062,45.0625 L97.8164062,52.046875 C97.8164062,52.8125038 98.0117168,53.4160134 98.4023438,53.8574219 C98.7929707,54.2988303 99.316403,54.5195312 99.9726562,54.5195312 C100.75391,54.5039062 101.369138,54.2128935 101.818359,53.6464844 C102.26758,53.0800753 102.492188,52.3476607 102.492188,51.4492188 L102.492188,45.0625 L106.652344,45.0625 L106.652344,58 Z M115.21875,43.6621094 C114.953124,43.9082044 114.820312,44.253904 114.820312,44.6992188 L114.820312,45.6367188 L117.75,45.6367188 L117.75,48.3789062 L114.820312,48.3789062 L114.820312,58 L110.71875,58 L110.71875,48.3789062 L108.960938,48.3789062 L108.960938,45.6367188 L110.71875,45.6367188 L110.71875,44.4414062 C110.71875,43.0507743 111.181636,41.9628946 112.107422,41.1777344 C113.033208,40.3925742 114.218743,40 115.664062,40 C116.304691,40 116.943356,40.0800773 117.580078,40.2402344 C118.2168,40.4003914 118.785154,40.6249986 119.285156,40.9140625 L117.820312,43.8203125 C117.593749,43.6406241 117.341798,43.5078129 117.064453,43.421875 C116.787108,43.3359371 116.519533,43.2929688 116.261719,43.2929688 C115.832029,43.2929688 115.484376,43.4160144 115.21875,43.6621094 L115.21875,43.6621094 Z M132.433594,53.2773438 L132.304688,53.2773438 L129.070312,53.2773438 L129.070312,58 L124.792969,58 L124.792969,41.1953125 L132.304688,41.1953125 C134.531261,41.1953125 136.251947,41.7031199 137.466797,42.71875 C138.681647,43.7343801 139.289062,45.1796781 139.289062,47.0546875 C139.289062,48.3359439 139.029299,49.4316361 138.509766,50.3417969 C137.990232,51.2519577 137.23438,51.9570287 136.242188,52.4570312 L139.769531,58 L134.929688,58 L132.433594,53.2773438 Z M132.304688,49.9140625 C133.23438,49.9140625 133.955076,49.6816429 134.466797,49.2167969 C134.978518,48.7519508 135.234375,48.0781294 135.234375,47.1953125 C135.234375,46.3281207 134.978518,45.6718772 134.466797,45.2265625 C133.955076,44.7812478 133.23438,44.5585938 132.304688,44.5585938 L129.070312,44.5585938 L129.070312,49.9140625 L132.304688,49.9140625 Z M152.666016,46.7558594 C153.794928,47.9785217 154.359375,49.6796766 154.359375,51.859375 C154.359375,52.2109393 154.351563,52.4726554 154.335938,52.6445312 L145.242188,52.6445312 C145.453126,53.4101601 145.82031,54.001951 146.34375,54.4199219 C146.86719,54.8378927 147.515621,55.046875 148.289062,55.046875 C148.86719,55.046875 149.417966,54.935548 149.941406,54.7128906 C150.464846,54.4902333 150.94531,54.1601584 151.382812,53.7226562 L153.5625,55.8671875 C152.890622,56.6015662 152.074224,57.1640605 151.113281,57.5546875 C150.152339,57.9453145 149.08985,58.140625 147.925781,58.140625 C146.535149,58.140625 145.324224,57.8691433 144.292969,57.3261719 C143.261714,56.7832004 142.464847,56.01563 141.902344,55.0234375 C141.339841,54.031245 141.058594,52.8789128 141.058594,51.5664062 C141.058594,50.2538997 141.343747,49.093755 141.914062,48.0859375 C142.484378,47.07812 143.277339,46.2988309 144.292969,45.7480469 C145.308599,45.1972629 146.480462,44.921875 147.808594,44.921875 C149.917979,44.921875 151.537104,45.533197 152.666016,46.7558594 L152.666016,46.7558594 Z M149.666016,48.5195312 C149.208982,48.0429664 148.605473,47.8046875 147.855469,47.8046875 C147.15234,47.8046875 146.560549,48.0390602 146.080078,48.5078125 C145.599607,48.9765648 145.292969,49.6132772 145.160156,50.4179688 L150.351562,50.4179688 C150.351562,49.6289023 150.123049,48.9960961 149.666016,48.5195312 L149.666016,48.5195312 Z M156.574219,58 L156.574219,45.0625 L160.710938,45.0625 L160.710938,58 L156.574219,58 Z M160.236328,39.7714844 C160.646486,40.1816427 160.851562,40.707028 160.851562,41.3476562 C160.851562,41.9882845 160.646486,42.5156229 160.236328,42.9296875 C159.82617,43.3437521 159.300784,43.5507812 158.660156,43.5507812 C158.019528,43.5507812 157.496096,43.3437521 157.089844,42.9296875 C156.683592,42.5156229 156.480469,41.9882845 156.480469,41.3476562 C156.480469,40.707028 156.683592,40.1816427 157.089844,39.7714844 C157.496096,39.3613261 158.019528,39.15625 158.660156,39.15625 C159.300784,39.15625 159.82617,39.3613261 160.236328,39.7714844 L160.236328,39.7714844 Z M171.421875,45.2558594 C172.335942,45.5097669 173.191402,45.8710914 173.988281,46.3398438 L172.570312,49.0234375 C170.968742,48.1562457 169.609381,47.7226562 168.492188,47.7226562 C168.109373,47.7226562 167.802736,47.7988274 167.572266,47.9511719 C167.341796,48.1035164 167.226562,48.3242173 167.226562,48.6132812 C167.226562,48.9179703 167.402342,49.1621085 167.753906,49.3457031 C168.105471,49.5292978 168.679684,49.7343739 169.476562,49.9609375 C170.39063,50.2187513 171.152341,50.4785143 171.761719,50.7402344 C172.371097,51.0019544 172.898435,51.4003879 173.34375,51.9355469 C173.789065,52.4707058 174.011719,53.1640582 174.011719,54.015625 C174.011719,55.3125065 173.507818,56.3281213 172.5,57.0625 C171.492182,57.7968787 170.179696,58.1640625 168.5625,58.1640625 C167.476557,58.1640625 166.429693,58.0078141 165.421875,57.6953125 C164.414057,57.3828109 163.527348,56.9335967 162.761719,56.3476562 L164.074219,53.6992188 C164.792972,54.2148463 165.556637,54.6132798 166.365234,54.8945312 C167.173832,55.1757827 167.941403,55.3164062 168.667969,55.3164062 C169.097658,55.3164062 169.439452,55.2402351 169.693359,55.0878906 C169.947267,54.9355461 170.074219,54.7148452 170.074219,54.4257812 C170.074219,54.0898421 169.890627,53.8261728 169.523438,53.6347656 C169.156248,53.4433584 168.582035,53.2343761 167.800781,53.0078125 C166.902339,52.7499987 166.158206,52.4902357 165.568359,52.2285156 C164.978513,51.9667956 164.470705,51.5761745 164.044922,51.0566406 C163.619138,50.5371068 163.40625,49.8515668 163.40625,49 C163.40625,47.7031185 163.894526,46.6914099 164.871094,45.9648438 C165.847661,45.2382776 167.113273,44.875 168.667969,44.875 C169.589848,44.875 170.507808,45.0019519 171.421875,45.2558594 L171.421875,45.2558594 Z M186.861328,46.7558594 C187.99024,47.9785217 188.554688,49.6796766 188.554688,51.859375 C188.554688,52.2109393 188.546875,52.4726554 188.53125,52.6445312 L179.4375,52.6445312 C179.648439,53.4101601 180.015622,54.001951 180.539062,54.4199219 C181.062503,54.8378927 181.710934,55.046875 182.484375,55.046875 C183.062503,55.046875 183.613279,54.935548 184.136719,54.7128906 C184.660159,54.4902333 185.140623,54.1601584 185.578125,53.7226562 L187.757812,55.8671875 C187.085934,56.6015662 186.269536,57.1640605 185.308594,57.5546875 C184.347651,57.9453145 183.285162,58.140625 182.121094,58.140625 C180.730462,58.140625 179.519536,57.8691433 178.488281,57.3261719 C177.457026,56.7832004 176.660159,56.01563 176.097656,55.0234375 C175.535153,54.031245 175.253906,52.8789128 175.253906,51.5664062 C175.253906,50.2538997 175.53906,49.093755 176.109375,48.0859375 C176.67969,47.07812 177.472651,46.2988309 178.488281,45.7480469 C179.503911,45.1972629 180.675775,44.921875 182.003906,44.921875 C184.113292,44.921875 185.732416,45.533197 186.861328,46.7558594 L186.861328,46.7558594 Z M183.861328,48.5195312 C183.404295,48.0429664 182.800785,47.8046875 182.050781,47.8046875 C181.347653,47.8046875 180.755862,48.0390602 180.275391,48.5078125 C179.794919,48.9765648 179.488282,49.6132772 179.355469,50.4179688 L184.546875,50.4179688 C184.546875,49.6289023 184.318362,48.9960961 183.861328,48.5195312 L183.861328,48.5195312 Z M202.681641,46.2285156 C203.544926,47.1308639 203.976562,48.33593 203.976562,49.84375 L203.976562,58 L199.839844,58 L199.839844,50.9921875 C199.839844,50.2421837 199.636721,49.6464866 199.230469,49.2050781 C198.824217,48.7636697 198.269535,48.5429688 197.566406,48.5429688 C196.832028,48.5429688 196.228518,48.7832007 195.755859,49.2636719 C195.283201,49.744143 195.007813,50.3749961 194.929688,51.15625 L194.929688,58 L190.769531,58 L190.769531,45.0625 L194.929688,45.0625 L194.929688,47.171875 C195.843755,45.664055 197.28124,44.8984376 199.242188,44.875 C200.671882,44.875 201.818355,45.3261674 202.681641,46.2285156 L202.681641,46.2285156 Z" id="Ina-&amp;-Jonas-auf-Reis"></path>
        </g>
    </g>
</svg>